<svg width="51" height="35" viewBox="0 0 51 35" fill="none" xmlns="http://www.w3.org/2000/svg">
<mask id="path-1-inside-1_1_239" fill="white">
<path d="M45.5667 23.5248L45.4657 23.5703L44.4941 23.507L43.7008 23.5931L43.1352 24.2339L42.7985 24.2319L42.3241 24.3983L42.0022 24.6053L41.6209 25.053L41.3258 24.8519L40.9643 24.8579L40.6117 24.9797L40.1878 25.2788L39.952 25.3313L39.4807 25.2461L38.9309 25.4175L37.7444 26.395L37.3453 27.1071L37.1997 27.2458L36.9996 27.4191L36.7857 27.5063L36.6728 27.4983L37.2383 26.9932L37.4116 26.804L37.4414 26.6644L37.4443 26.4376L37.273 26.1563L36.8104 26.8526L36.548 26.9536L36.2142 27.1626L36.1974 27.6271L36.236 27.9718L36.3727 28.4046L36.6956 29.1107L37.3552 30.116L37.6711 30.4844L37.9029 30.631L38.1822 30.6518L38.719 30.3418L38.9478 30.2933L39.4469 30.4112L39.6253 30.2052L39.8847 30.0903L40.2175 30.0754L40.5978 30.1685L41.0098 30.325L40.8405 30.6786L40.6642 30.9599L40.6018 31.2708L40.5037 31.6165L40.0491 31.771L39.5628 31.7522L39.0498 31.8522L38.8646 31.7185L38.7418 31.5957L38.514 31.4729L38.2139 31.4056L37.9445 31.4877L37.6255 31.9582L37.061 32.2791L36.8748 32.6456L36.3192 32.5633L35.8438 32.6277L35.1574 32.9615L34.6345 33.6746L34.0581 34.1193L33.6015 34.2599L33.1726 34.2164L32.8953 34.0836L32.3248 33.6162L32.3585 33.4488L32.4378 33.3646L32.5457 33.1229L32.7735 32.2355L32.7428 31.9463L32.6151 31.4917L32.1624 31.1371L31.7989 31.2045L31.5919 31.1104L30.8462 30.5062L30.4401 30.4637L29.9914 30.5855L29.826 30.4973L29.7042 30.2864L30.5936 29.5386L31.4672 28.9196L31.8504 28.8562L32.3675 28.567L32.9201 28.1332L32.8419 27.7915L32.723 27.538L32.4585 27.6073L32.2664 27.6915L31.8039 27.4201L31.6345 27.22L30.9105 27.428L30.5074 27.3973L29.618 27.5885L29.209 27.4023L28.3919 26.8793L28.0848 26.7743L27.8234 26.7971L27.6808 26.6248L27.8551 26.5386L28.0581 26.5287L28.2691 26.4653L28.3285 26.3742L28.3156 26.2019L27.8907 26.0711L27.4956 26.0335L27.245 25.879L27.0538 25.7017L27.5015 25.6987L27.9522 25.8335L28.6563 25.883L29.2961 26.0216L29.4556 25.8493L29.827 25.5502L29.8973 25.4551L29.2754 25.6601L28.6444 25.5294L28.4147 25.3472L28.2195 25.0788L28.1374 24.7727L28.1908 24.4875L28.1225 23.9715L27.9145 23.5109L27.8412 23.2584L27.6214 23.0315L27.8372 23.5446L27.9175 23.8853L28.0472 24.1983L28.0165 25.0263L27.9363 25.3165L27.6768 25.3897L27.3361 25.3462L26.9895 25.256L27.0756 24.8014L26.8904 24.9589L26.6299 25.4016L26.4001 25.467L25.8901 25.4185L24.9432 25.7106L24.8779 26.0286L24.7353 26.4574L24.5976 26.707L24.555 26.8575L24.1519 27.5023L24.1004 27.5637L23.3388 28.4541L23.2417 28.5204L22.7485 28.7275L22.4563 28.9087L22.2325 28.9899L21.8541 28.8998L21.6966 29.0276L21.6224 29.186L21.6214 29.5139L21.8135 29.7486L21.971 30.528L21.9125 30.8569L21.763 30.6439L21.5283 30.4191L21.0727 30.227L20.5725 30.2933L20.0268 30.6182L19.6564 30.739L19.4622 30.6558L19.3434 30.6608L19.3018 30.7538L19.3107 30.8301L19.3701 30.8895L19.3622 30.9321L19.285 30.9589L18.4253 30.7301L18.0539 30.5132L17.7617 30.1061L17.9073 29.9744L18.034 29.916L18.4817 29.8823L18.559 29.8407L18.5669 29.7466L18.6006 29.6238L18.5887 29.4445L18.5392 29.2543L18.7353 28.9761L19.0275 28.7463L19.1988 28.5155L19.2246 28.1768L19.5326 28.0114L19.8049 27.7271L19.8723 27.4171L19.9683 27.222L19.7941 26.7734L19.7574 26.4772L19.7495 26.2286L19.8346 26.0909L20.0892 25.9355L20.3566 25.8146L20.4675 25.8265L20.5082 25.9028L20.518 26.4079L20.5715 26.4178L20.6567 26.3554L20.7963 26.0583L20.8924 26.1444L21.041 26.1771L21.1519 26.0999L21.2242 26.1088L21.3134 26.185L21.4916 26.293L21.658 26.3287L21.7957 26.2574L21.9136 26.1286L22.0393 26.1722L22.278 26.5228L22.389 26.4841L22.9386 26.4138L23.0268 26.3187L23.0921 26.2326L22.5177 25.7671L22.5464 25.4195L22.5682 25.0203L22.4999 24.7826L22.3879 24.5944L21.9492 24.3755L21.6095 24.1487L21.5382 24.0458L21.5293 23.913L21.5144 23.707L21.3797 23.5297L21.3688 23.3792L21.454 23.1445L21.4748 22.8949L21.4461 22.7958L21.3669 22.7146L21.2143 22.7067L21.0132 22.5621L20.8756 22.367L20.5051 22.0857L20.3923 22.0401L20.3229 21.9005L20.2893 21.7341L20.3675 21.5271L20.4655 21.2072L20.5339 20.9071L20.5349 20.7278L20.4903 20.2841L20.2972 19.9444L20.2071 19.8998L20.0516 19.9949L19.8743 20.0752L19.7346 19.9999L19.5752 19.8156L19.3196 19.3016L18.8412 19.1986L18.6432 19.1739L18.456 19.4215L18.3975 19.3462L18.3451 19.1877L18.246 19.1253L18.1153 19.1986L18.0776 19.1283L18.1341 18.9134L17.9786 18.8074L17.6111 18.8094L17.415 18.7302L17.3923 18.5687L17.2764 18.4627L17.0684 18.4112L16.8654 18.2795L16.6693 18.0666L16.3751 17.9279L15.9839 17.8635L15.9522 17.8408L15.9156 17.81L15.663 17.9546L15.5115 18.0695L15.3253 17.9982L15.0242 18.2538L14.4121 18.2666L14.112 18.2508L13.9634 18.1874L13.389 18.5757L13.3286 18.7183L13.1998 18.7658L12.8383 18.8431L12.458 18.952L12.3778 19.3274L12.2649 19.5304L12.0608 19.8276L11.3547 19.9306L10.7446 20.0752L10.1196 20.1653L9.30053 20.5278L9.03413 20.8467L8.77068 20.9358L8.53197 20.9626L8.37745 20.7843L7.85752 20.3069L7.65743 20.0811L7.39399 20.0147L7.10775 20.0524L6.8324 20.1633L6.54321 20.1841L6.21538 20.0237L6.18075 20.0395L6.05495 20.0613L5.2408 19.8671L5.16554 19.8345L5.12988 19.8266L5.01798 19.8117L4.40489 19.8355L3.83346 19.4433L3.65815 19.4314L3.52244 19.5898L3.42239 19.7661L3.0282 19.9414L2.92718 20.0118L2.86975 19.9573L2.84304 19.8058L2.87272 19.671L2.81426 19.5443L2.66471 19.3997L2.62807 19.3393L2.43989 19.3501L2.38839 19.364L2.36959 19.3611L2.10814 19.2382L1.9358 18.9421L1.6674 18.7846L1.46235 18.7311L1.36925 18.6034L1.30886 18.434L1.24545 18.3063L1.23856 18.2934L1.19498 18.0993L1.13253 18.0794L1.12165 18.0745L0.857239 18.1082L0.887948 17.4258L1.31086 16.9335L1.41483 16.6849L1.57327 16.1452L1.69212 15.8916L1.83478 15.6816L1.94867 15.4786L1.98929 15.3043L2.10415 15.2845L2.44092 15.442L2.74299 15.5232L2.82617 15.4459L2.86087 15.3449L2.84696 15.2667L2.60528 15.0339L2.4538 14.8853L2.44388 14.7942L2.49835 14.5892L2.52803 14.3594L2.49339 14.1098L2.328 13.5562L2.29729 13.3205L2.45476 13.0333L2.96781 12.3479L3.13912 12.0894L3.37288 11.7774L4.00773 11.0287L4.40786 10.5919L4.67928 10.3492L5.07644 9.92831L5.25072 9.70942L5.9757 9.56678L6.06583 9.36176L6.19858 9.13795L6.30159 9.04186L6.31543 8.66453L6.18075 8.20199L6.07278 8.03857L5.99256 7.92664L6.04503 7.82267L6.12525 7.79296L6.22433 7.77808L6.34711 7.66616L6.31936 7.54435L6.01336 7.24724L5.88061 7.01843L5.67363 6.42814L5.25368 5.81408L5.12099 5.61502L5.10213 5.42683L5.16355 5.23865L5.10515 4.99797L4.95656 4.69094L4.98032 4.65727L4.96551 4.27794L5.07148 4.19573L5.23881 4.14027L5.47456 4.1591L5.67659 4.21752L5.91827 4.39086L5.99353 4.36312L6.40653 4.03629L6.8324 3.54305L6.95427 3.25681L7.06024 3.12609L7.43062 3.05675L7.75348 3.02804L7.95853 3.033L8.46263 2.98445L8.76077 2.92999L9.01926 2.84282L9.57685 2.81015L10.4465 2.86857L11.0179 2.87253L11.4062 2.91908L12.356 3.18155L12.7096 3.2291L12.874 3.36874L13.1899 3.42024L13.7644 3.55988L14.2625 3.63517L14.5993 3.60447L14.7875 3.64409L15.144 4.2631L15.2173 4.3354L15.36 4.35024L15.6511 4.29677L16.0651 4.31757L16.3107 4.4473L16.2751 4.81474L16.3394 4.86824L16.4544 4.84745L16.5861 4.64043L16.697 4.4255L16.7792 4.35816L17.2021 4.50376L17.3953 4.48L17.5735 4.31657L17.6825 4.28885L17.9825 4.40471L18.352 4.48592L18.6511 4.49088L18.8373 4.57905L18.973 4.96233L19.0908 5.04155L19.2047 5.06534L19.3771 4.72265L19.5336 4.58993L19.7505 4.49188L19.8901 4.44929L19.9891 4.32745L20.1219 4.2096L20.2367 4.19969L20.3298 4.24527L20.4368 4.40867L20.5933 4.78107L20.7835 5.15447L20.9162 5.29016L21.2589 5.17527L21.4907 5.05839L21.9155 5.0366L22.4791 4.95441L22.9099 4.84745L23.1793 4.86625L23.3427 4.98509L23.5913 5.2139L23.6587 5.54272L23.9815 5.76953L24.246 5.81112L24.3361 5.57539L24.4906 5.411L24.4322 5.18419L24.4064 4.89499L24.2905 4.62656L24.2133 4.33737L24.3549 3.92337L24.5094 3.56088L24.5867 3.36378L24.8313 2.99933L25.0819 2.73884L25.4572 2.31989L25.7316 2.18122L25.9792 2.2446L26.1169 2.30206L26.4724 2.05346L27.1053 2.04058L27.6322 2.07229L27.6857 2.08021L27.9452 2.20897L28.2176 2.3179L28.4058 2.32485L28.6296 2.30007L28.8931 2.15447L29.0763 2.01383L29.2991 1.29876L29.3784 1.19576L29.5011 1.1393L29.7022 1.13337L30.0845 1.26706L30.5322 1.3869L30.7917 1.37007L31.483 0.988774L31.8683 0.929321L32.3259 1.01849L32.7755 1.02341L33.1142 0.967949L33.3469 1.0997L33.6342 1.39086L33.8936 1.82269L34.1651 2.618L34.9564 3.51234L34.9692 3.68668L34.9049 3.79857L34.5157 3.90654L34.1868 3.96496L34.171 4.11751L34.2582 4.2829L34.4087 4.52455L34.4315 4.83554L34.4236 5.1208L34.4879 5.37237L34.6137 5.47538L34.6296 5.60114L34.485 5.75565L34.4443 5.85074L34.5008 5.90225L35.2149 5.93196L35.5645 6.08151L35.8299 6.21819L35.9636 6.23107L36.2648 6.1439L36.6035 6.08843L36.8084 6.08051L36.8877 6.18153L36.9511 6.44597L37.07 6.71041L37.1809 6.7857L37.379 6.77282L37.4978 6.7857L37.5612 6.88572L37.4899 7.03627L37.5057 7.19969L37.5929 7.39976L37.6959 7.86226L37.7909 7.99994L37.8544 8.17425V8.37434L37.7751 8.54865L37.7197 8.68532L37.7751 8.99631L37.989 9.34393L38.1475 9.4301L38.2743 9.74012L38.5041 9.83914L38.8448 9.57866L39.1062 9.44198L39.4331 9.51827L39.7351 9.56678L39.9382 9.74408L40.0878 9.98773L40.262 10.1234L40.4364 10.0521L40.7999 10.1234L40.9663 10.3205L41.1326 10.4314L41.3466 10.271L41.5209 10.0729L42.1587 9.86589L42.5549 9.81439L42.6658 9.7738L42.8986 9.62521L43.1442 9.52619L43.3651 9.55291L43.5829 9.86093L43.8088 10.0729L43.8721 10.4067L44.1475 10.8642L44.8318 11.4892L45.1002 11.6793L45.2825 11.6457L45.3776 11.5962L45.4221 11.5308L45.4637 11.2248L45.5499 11.1118L45.6885 11.1089L46.2244 11.4892L46.5047 11.5308L46.7711 11.5377L47.1296 11.8329L47.5229 12.0894L47.8269 12.1161L48.0696 12.0151L48.2359 11.9537L48.3389 12.0517L48.434 12.2726L48.5925 12.444L48.7747 12.4925L49.0372 12.5034L49.4928 12.8342L49.9206 13.1709L50.1881 13.1898L50.4149 13.0907L50.6149 13.065L50.7546 13.1501L50.7942 13.2957L50.6912 13.4908V13.7701L50.8814 14.0375L50.8873 14.3L50.8328 14.5367L50.7249 14.7546L50.4644 15.0537L50.2237 15.332L49.8622 15.4479L49.6592 15.5697L49.7127 15.7737L49.8454 15.9639L50.1524 16.1174L50.501 16.2294L50.5416 16.3532L50.4881 16.4155L50.2643 16.473L49.9553 16.4145L49.8523 16.5225L49.7097 16.7018L49.6146 17.0246L49.5433 17.3238L49.879 17.405L50.0742 17.5268L50.1356 17.7714L50.2049 18.0438L50.2257 18.2884L50.1148 18.4073L50.1078 18.5291L50.1603 18.5895L50.3049 18.6162L50.4149 18.6707L50.4238 18.7995L50.2128 19.0887L50.0157 19.6413L49.9097 19.9345L49.9177 20.2524L49.7988 20.4287L49.5799 20.4515L48.8371 20.4822L48.1904 20.4664L47.9111 20.4208L47.4733 20.3931L47.2564 20.4684L46.9692 20.9754L46.7513 21.1735L46.3918 21.3528L45.9966 21.4043L45.7698 21.6123L45.6896 21.9391L45.6837 22.2283L45.647 22.3729L45.5618 22.4997L45.5311 22.5898L45.5499 22.6889L45.642 22.7245L45.752 22.7701V22.8414L45.7093 22.9315L45.5866 23.0305L45.5311 23.1831L45.544 23.3455L45.5667 23.5248ZM28.3275 27.1071L28.7108 27.3042L28.3196 27.2517L27.4609 27.0665L27.0815 26.8912L26.9835 26.6951L26.9281 26.4277L27.14 26.708L27.2885 26.8308L28.3275 27.1071Z"/>
</mask>
<path d="M45.5667 23.5248L45.4657 23.5703L44.4941 23.507L43.7008 23.5931L43.1352 24.2339L42.7985 24.2319L42.3241 24.3983L42.0022 24.6053L41.6209 25.053L41.3258 24.8519L40.9643 24.8579L40.6117 24.9797L40.1878 25.2788L39.952 25.3313L39.4807 25.2461L38.9309 25.4175L37.7444 26.395L37.3453 27.1071L37.1997 27.2458L36.9996 27.4191L36.7857 27.5063L36.6728 27.4983L37.2383 26.9932L37.4116 26.804L37.4414 26.6644L37.4443 26.4376L37.273 26.1563L36.8104 26.8526L36.548 26.9536L36.2142 27.1626L36.1974 27.6271L36.236 27.9718L36.3727 28.4046L36.6956 29.1107L37.3552 30.116L37.6711 30.4844L37.9029 30.631L38.1822 30.6518L38.719 30.3418L38.9478 30.2933L39.4469 30.4112L39.6253 30.2052L39.8847 30.0903L40.2175 30.0754L40.5978 30.1685L41.0098 30.325L40.8405 30.6786L40.6642 30.9599L40.6018 31.2708L40.5037 31.6165L40.0491 31.771L39.5628 31.7522L39.0498 31.8522L38.8646 31.7185L38.7418 31.5957L38.514 31.4729L38.2139 31.4056L37.9445 31.4877L37.6255 31.9582L37.061 32.2791L36.8748 32.6456L36.3192 32.5633L35.8438 32.6277L35.1574 32.9615L34.6345 33.6746L34.0581 34.1193L33.6015 34.2599L33.1726 34.2164L32.8953 34.0836L32.3248 33.6162L32.3585 33.4488L32.4378 33.3646L32.5457 33.1229L32.7735 32.2355L32.7428 31.9463L32.6151 31.4917L32.1624 31.1371L31.7989 31.2045L31.5919 31.1104L30.8462 30.5062L30.4401 30.4637L29.9914 30.5855L29.826 30.4973L29.7042 30.2864L30.5936 29.5386L31.4672 28.9196L31.8504 28.8562L32.3675 28.567L32.9201 28.1332L32.8419 27.7915L32.723 27.538L32.4585 27.6073L32.2664 27.6915L31.8039 27.4201L31.6345 27.22L30.9105 27.428L30.5074 27.3973L29.618 27.5885L29.209 27.4023L28.3919 26.8793L28.0848 26.7743L27.8234 26.7971L27.6808 26.6248L27.8551 26.5386L28.0581 26.5287L28.2691 26.4653L28.3285 26.3742L28.3156 26.2019L27.8907 26.0711L27.4956 26.0335L27.245 25.879L27.0538 25.7017L27.5015 25.6987L27.9522 25.8335L28.6563 25.883L29.2961 26.0216L29.4556 25.8493L29.827 25.5502L29.8973 25.4551L29.2754 25.6601L28.6444 25.5294L28.4147 25.3472L28.2195 25.0788L28.1374 24.7727L28.1908 24.4875L28.1225 23.9715L27.9145 23.5109L27.8412 23.2584L27.6214 23.0315L27.8372 23.5446L27.9175 23.8853L28.0472 24.1983L28.0165 25.0263L27.9363 25.3165L27.6768 25.3897L27.3361 25.3462L26.9895 25.256L27.0756 24.8014L26.8904 24.9589L26.6299 25.4016L26.4001 25.467L25.8901 25.4185L24.9432 25.7106L24.8779 26.0286L24.7353 26.4574L24.5976 26.707L24.555 26.8575L24.1519 27.5023L24.1004 27.5637L23.3388 28.4541L23.2417 28.5204L22.7485 28.7275L22.4563 28.9087L22.2325 28.9899L21.8541 28.8998L21.6966 29.0276L21.6224 29.186L21.6214 29.5139L21.8135 29.7486L21.971 30.528L21.9125 30.8569L21.763 30.6439L21.5283 30.4191L21.0727 30.227L20.5725 30.2933L20.0268 30.6182L19.6564 30.739L19.4622 30.6558L19.3434 30.6608L19.3018 30.7538L19.3107 30.8301L19.3701 30.8895L19.3622 30.9321L19.285 30.9589L18.4253 30.7301L18.0539 30.5132L17.7617 30.1061L17.9073 29.9744L18.034 29.916L18.4817 29.8823L18.559 29.8407L18.5669 29.7466L18.6006 29.6238L18.5887 29.4445L18.5392 29.2543L18.7353 28.9761L19.0275 28.7463L19.1988 28.5155L19.2246 28.1768L19.5326 28.0114L19.8049 27.7271L19.8723 27.4171L19.9683 27.222L19.7941 26.7734L19.7574 26.4772L19.7495 26.2286L19.8346 26.0909L20.0892 25.9355L20.3566 25.8146L20.4675 25.8265L20.5082 25.9028L20.518 26.4079L20.5715 26.4178L20.6567 26.3554L20.7963 26.0583L20.8924 26.1444L21.041 26.1771L21.1519 26.0999L21.2242 26.1088L21.3134 26.185L21.4916 26.293L21.658 26.3287L21.7957 26.2574L21.9136 26.1286L22.0393 26.1722L22.278 26.5228L22.389 26.4841L22.9386 26.4138L23.0268 26.3187L23.0921 26.2326L22.5177 25.7671L22.5464 25.4195L22.5682 25.0203L22.4999 24.7826L22.3879 24.5944L21.9492 24.3755L21.6095 24.1487L21.5382 24.0458L21.5293 23.913L21.5144 23.707L21.3797 23.5297L21.3688 23.3792L21.454 23.1445L21.4748 22.8949L21.4461 22.7958L21.3669 22.7146L21.2143 22.7067L21.0132 22.5621L20.8756 22.367L20.5051 22.0857L20.3923 22.0401L20.3229 21.9005L20.2893 21.7341L20.3675 21.5271L20.4655 21.2072L20.5339 20.9071L20.5349 20.7278L20.4903 20.2841L20.2972 19.9444L20.2071 19.8998L20.0516 19.9949L19.8743 20.0752L19.7346 19.9999L19.5752 19.8156L19.3196 19.3016L18.8412 19.1986L18.6432 19.1739L18.456 19.4215L18.3975 19.3462L18.3451 19.1877L18.246 19.1253L18.1153 19.1986L18.0776 19.1283L18.1341 18.9134L17.9786 18.8074L17.6111 18.8094L17.415 18.7302L17.3923 18.5687L17.2764 18.4627L17.0684 18.4112L16.8654 18.2795L16.6693 18.0666L16.3751 17.9279L15.9839 17.8635L15.9522 17.8408L15.9156 17.81L15.663 17.9546L15.5115 18.0695L15.3253 17.9982L15.0242 18.2538L14.4121 18.2666L14.112 18.2508L13.9634 18.1874L13.389 18.5757L13.3286 18.7183L13.1998 18.7658L12.8383 18.8431L12.458 18.952L12.3778 19.3274L12.2649 19.5304L12.0608 19.8276L11.3547 19.9306L10.7446 20.0752L10.1196 20.1653L9.30053 20.5278L9.03413 20.8467L8.77068 20.9358L8.53197 20.9626L8.37745 20.7843L7.85752 20.3069L7.65743 20.0811L7.39399 20.0147L7.10775 20.0524L6.8324 20.1633L6.54321 20.1841L6.21538 20.0237L6.18075 20.0395L6.05495 20.0613L5.2408 19.8671L5.16554 19.8345L5.12988 19.8266L5.01798 19.8117L4.40489 19.8355L3.83346 19.4433L3.65815 19.4314L3.52244 19.5898L3.42239 19.7661L3.0282 19.9414L2.92718 20.0118L2.86975 19.9573L2.84304 19.8058L2.87272 19.671L2.81426 19.5443L2.66471 19.3997L2.62807 19.3393L2.43989 19.3501L2.38839 19.364L2.36959 19.3611L2.10814 19.2382L1.9358 18.9421L1.6674 18.7846L1.46235 18.7311L1.36925 18.6034L1.30886 18.434L1.24545 18.3063L1.23856 18.2934L1.19498 18.0993L1.13253 18.0794L1.12165 18.0745L0.857239 18.1082L0.887948 17.4258L1.31086 16.9335L1.41483 16.6849L1.57327 16.1452L1.69212 15.8916L1.83478 15.6816L1.94867 15.4786L1.98929 15.3043L2.10415 15.2845L2.44092 15.442L2.74299 15.5232L2.82617 15.4459L2.86087 15.3449L2.84696 15.2667L2.60528 15.0339L2.4538 14.8853L2.44388 14.7942L2.49835 14.5892L2.52803 14.3594L2.49339 14.1098L2.328 13.5562L2.29729 13.3205L2.45476 13.0333L2.96781 12.3479L3.13912 12.0894L3.37288 11.7774L4.00773 11.0287L4.40786 10.5919L4.67928 10.3492L5.07644 9.92831L5.25072 9.70942L5.9757 9.56678L6.06583 9.36176L6.19858 9.13795L6.30159 9.04186L6.31543 8.66453L6.18075 8.20199L6.07278 8.03857L5.99256 7.92664L6.04503 7.82267L6.12525 7.79296L6.22433 7.77808L6.34711 7.66616L6.31936 7.54435L6.01336 7.24724L5.88061 7.01843L5.67363 6.42814L5.25368 5.81408L5.12099 5.61502L5.10213 5.42683L5.16355 5.23865L5.10515 4.99797L4.95656 4.69094L4.98032 4.65727L4.96551 4.27794L5.07148 4.19573L5.23881 4.14027L5.47456 4.1591L5.67659 4.21752L5.91827 4.39086L5.99353 4.36312L6.40653 4.03629L6.8324 3.54305L6.95427 3.25681L7.06024 3.12609L7.43062 3.05675L7.75348 3.02804L7.95853 3.033L8.46263 2.98445L8.76077 2.92999L9.01926 2.84282L9.57685 2.81015L10.4465 2.86857L11.0179 2.87253L11.4062 2.91908L12.356 3.18155L12.7096 3.2291L12.874 3.36874L13.1899 3.42024L13.7644 3.55988L14.2625 3.63517L14.5993 3.60447L14.7875 3.64409L15.144 4.2631L15.2173 4.3354L15.36 4.35024L15.6511 4.29677L16.0651 4.31757L16.3107 4.4473L16.2751 4.81474L16.3394 4.86824L16.4544 4.84745L16.5861 4.64043L16.697 4.4255L16.7792 4.35816L17.2021 4.50376L17.3953 4.48L17.5735 4.31657L17.6825 4.28885L17.9825 4.40471L18.352 4.48592L18.6511 4.49088L18.8373 4.57905L18.973 4.96233L19.0908 5.04155L19.2047 5.06534L19.3771 4.72265L19.5336 4.58993L19.7505 4.49188L19.8901 4.44929L19.9891 4.32745L20.1219 4.2096L20.2367 4.19969L20.3298 4.24527L20.4368 4.40867L20.5933 4.78107L20.7835 5.15447L20.9162 5.29016L21.2589 5.17527L21.4907 5.05839L21.9155 5.0366L22.4791 4.95441L22.9099 4.84745L23.1793 4.86625L23.3427 4.98509L23.5913 5.2139L23.6587 5.54272L23.9815 5.76953L24.246 5.81112L24.3361 5.57539L24.4906 5.411L24.4322 5.18419L24.4064 4.89499L24.2905 4.62656L24.2133 4.33737L24.3549 3.92337L24.5094 3.56088L24.5867 3.36378L24.8313 2.99933L25.0819 2.73884L25.4572 2.31989L25.7316 2.18122L25.9792 2.2446L26.1169 2.30206L26.4724 2.05346L27.1053 2.04058L27.6322 2.07229L27.6857 2.08021L27.9452 2.20897L28.2176 2.3179L28.4058 2.32485L28.6296 2.30007L28.8931 2.15447L29.0763 2.01383L29.2991 1.29876L29.3784 1.19576L29.5011 1.1393L29.7022 1.13337L30.0845 1.26706L30.5322 1.3869L30.7917 1.37007L31.483 0.988774L31.8683 0.929321L32.3259 1.01849L32.7755 1.02341L33.1142 0.967949L33.3469 1.0997L33.6342 1.39086L33.8936 1.82269L34.1651 2.618L34.9564 3.51234L34.9692 3.68668L34.9049 3.79857L34.5157 3.90654L34.1868 3.96496L34.171 4.11751L34.2582 4.2829L34.4087 4.52455L34.4315 4.83554L34.4236 5.1208L34.4879 5.37237L34.6137 5.47538L34.6296 5.60114L34.485 5.75565L34.4443 5.85074L34.5008 5.90225L35.2149 5.93196L35.5645 6.08151L35.8299 6.21819L35.9636 6.23107L36.2648 6.1439L36.6035 6.08843L36.8084 6.08051L36.8877 6.18153L36.9511 6.44597L37.07 6.71041L37.1809 6.7857L37.379 6.77282L37.4978 6.7857L37.5612 6.88572L37.4899 7.03627L37.5057 7.19969L37.5929 7.39976L37.6959 7.86226L37.7909 7.99994L37.8544 8.17425V8.37434L37.7751 8.54865L37.7197 8.68532L37.7751 8.99631L37.989 9.34393L38.1475 9.4301L38.2743 9.74012L38.5041 9.83914L38.8448 9.57866L39.1062 9.44198L39.4331 9.51827L39.7351 9.56678L39.9382 9.74408L40.0878 9.98773L40.262 10.1234L40.4364 10.0521L40.7999 10.1234L40.9663 10.3205L41.1326 10.4314L41.3466 10.271L41.5209 10.0729L42.1587 9.86589L42.5549 9.81439L42.6658 9.7738L42.8986 9.62521L43.1442 9.52619L43.3651 9.55291L43.5829 9.86093L43.8088 10.0729L43.8721 10.4067L44.1475 10.8642L44.8318 11.4892L45.1002 11.6793L45.2825 11.6457L45.3776 11.5962L45.4221 11.5308L45.4637 11.2248L45.5499 11.1118L45.6885 11.1089L46.2244 11.4892L46.5047 11.5308L46.7711 11.5377L47.1296 11.8329L47.5229 12.0894L47.8269 12.1161L48.0696 12.0151L48.2359 11.9537L48.3389 12.0517L48.434 12.2726L48.5925 12.444L48.7747 12.4925L49.0372 12.5034L49.4928 12.8342L49.9206 13.1709L50.1881 13.1898L50.4149 13.0907L50.6149 13.065L50.7546 13.1501L50.7942 13.2957L50.6912 13.4908V13.7701L50.8814 14.0375L50.8873 14.3L50.8328 14.5367L50.7249 14.7546L50.4644 15.0537L50.2237 15.332L49.8622 15.4479L49.6592 15.5697L49.7127 15.7737L49.8454 15.9639L50.1524 16.1174L50.501 16.2294L50.5416 16.3532L50.4881 16.4155L50.2643 16.473L49.9553 16.4145L49.8523 16.5225L49.7097 16.7018L49.6146 17.0246L49.5433 17.3238L49.879 17.405L50.0742 17.5268L50.1356 17.7714L50.2049 18.0438L50.2257 18.2884L50.1148 18.4073L50.1078 18.5291L50.1603 18.5895L50.3049 18.6162L50.4149 18.6707L50.4238 18.7995L50.2128 19.0887L50.0157 19.6413L49.9097 19.9345L49.9177 20.2524L49.7988 20.4287L49.5799 20.4515L48.8371 20.4822L48.1904 20.4664L47.9111 20.4208L47.4733 20.3931L47.2564 20.4684L46.9692 20.9754L46.7513 21.1735L46.3918 21.3528L45.9966 21.4043L45.7698 21.6123L45.6896 21.9391L45.6837 22.2283L45.647 22.3729L45.5618 22.4997L45.5311 22.5898L45.5499 22.6889L45.642 22.7245L45.752 22.7701V22.8414L45.7093 22.9315L45.5866 23.0305L45.5311 23.1831L45.544 23.3455L45.5667 23.5248ZM28.3275 27.1071L28.7108 27.3042L28.3196 27.2517L27.4609 27.0665L27.0815 26.8912L26.9835 26.6951L26.9281 26.4277L27.14 26.708L27.2885 26.8308L28.3275 27.1071Z" fill="#374151" stroke="white" stroke-width="0.2" mask="url(#path-1-inside-1_1_239)"/>
</svg>
