<svg width="115" height="63" viewBox="0 0 115 63" fill="none" xmlns="http://www.w3.org/2000/svg">
<mask id="path-1-inside-1_1_134" fill="white">
<path d="M114.068 29.2488L113.811 29.1647L113.306 29.1468L112.998 29.1993L112.853 29.229L112.637 29.4024L112.484 29.5747L112.416 29.8679L112.498 30.1987L112.387 30.886L112.236 31.1445L111.919 31.5932L111.735 31.6902L111.426 31.7705L111.129 31.9032L110.546 32.0319L109.918 32.0973L109.694 32.1934L109.534 32.4994L109.421 32.7539L109.352 32.9481L109.174 33.58L109.073 34.1435L109.172 34.8417L109.246 35.6153L109.241 35.8817L109.395 36.2759L109.472 36.5176L109.435 36.8602L109.214 37.1296L109.082 37.4862L108.957 37.6377L108.597 37.706L108.259 37.7476L107.917 38.0537L107.644 38.2646L107.216 38.533L107.015 38.5836L106.904 38.4469L106.83 38.1428L106.684 38.0081L106.477 37.9972L106.31 37.9943L105.773 37.9121L105.428 37.918L105.17 37.9834L104.874 38.0161L104.364 37.9051L104.034 37.811L103.813 37.7209L103.283 37.4545L102.586 37.1375L102.301 37.0444L102.132 37.1395L102.106 37.3208L102.062 37.7595L101.98 38.0339L101.495 39.4165L101.195 40.3732L100.814 41.2874L100.693 41.8985L100.465 42.67L100.238 43.2276L100.146 43.5307L100.138 43.6545L100.178 43.8278L100.525 44.017L100.89 44.1329L100.97 44.2052L101.01 44.4013L100.996 44.7222L100.93 45.0253L100.825 45.263L100.721 45.3808L100.602 45.3877L100.374 45.2352L100.171 45.0649L100.013 45.0134L99.6132 45.1084L99.2428 45.2382L99.119 45.2422L98.9041 45.1589L98.6872 44.9866L98.601 44.6529L98.4148 44.5013L98.1652 44.6529L97.4224 44.9074L96.6043 45.2104L96.0844 45.367L95.8813 45.3432L95.4782 45.3788L95.1286 45.463L94.8661 45.5799L94.3482 45.7413L93.8777 45.8493L93.5746 46.0939L93.3568 46.3296L93.3657 46.4188L93.5242 46.5584L93.7054 46.6674L94.0678 46.6416L94.4214 46.6248L94.7156 46.7723L94.9791 46.8674L95.0514 46.9902L94.9791 47.1101L94.8265 47.1378L94.7731 47.221L94.7998 47.3329L94.6988 47.6241L94.6463 48.0649L94.6988 48.4986L94.7275 48.8978L94.7087 49.0988L94.6988 49.3851L94.8107 49.5782L94.9107 49.9457L95.09 50.1754L95.3603 50.9697L95.5198 51.4323L95.6664 51.9552L95.5604 52.2375L95.5674 52.4009L95.7397 52.5376L95.815 52.804L95.8952 52.9664L95.8734 53.1279L95.8001 53.1903L95.4267 53.0922L95.1207 53.2537L94.7959 53.4161L94.7523 53.5023L94.7433 53.5963L94.776 53.6786L94.9632 53.8232L95.2217 53.9133L95.2088 54.0579L94.8889 54.1242L94.4066 54.3451L94.2729 54.5818L94.1699 54.8423L94.1609 54.9928L94.2095 55.3959L94.2828 55.8416L94.4204 56.3111L94.4313 56.4557L94.3601 56.5587L94.2937 56.625L93.9104 56.2022L93.4924 55.7891L93.1656 55.6941L92.5961 55.6257L92.294 55.6227L92.1227 55.5247L91.9543 55.285L91.7533 55.0681L91.4957 54.8383L91.3907 54.4877L91.2848 54.4253L91.0986 54.4699L90.7876 54.459L90.6133 54.4283L90.3528 54.3679L89.9378 54.2243L89.61 54.0886L89.197 54.0628L88.9593 54.0896L88.2175 54.1153L87.6014 53.9727L87.1032 53.947L86.7962 53.9549L86.6496 53.937L86.3981 53.938L86.0276 53.9073L85.5324 53.6875L85.3403 53.6766L85.2184 53.6845L84.3905 53.8459L84.0091 53.8836L83.2 53.8647L82.4057 53.8469L82.1502 53.8132L82.0085 53.8301L81.7084 54.2173L81.5796 54.2777L80.8309 54.1936L79.9455 53.939L79.3057 53.6597L78.7629 53.3636L78.0439 52.8961L77.614 52.6653L77.5516 52.7981L77.4378 52.8407L77.2723 52.8615L76.891 52.8377L76.7147 53.0744L76.2492 53.2438L75.9531 53.3953L75.7986 53.5666L75.5035 54.6987L75.4242 55.1117L75.6223 55.805L75.3955 55.7644L75.1291 55.5871L75.037 55.4474L74.7804 55.3623L73.8475 55.2335L73.6731 55.0741L73.5642 54.9443L73.3225 54.8591L72.9809 54.7937L72.238 54.4927L71.9211 54.4818L70.9624 54.25L70.8059 54.252L70.7346 54.2619L70.3621 54.4135L70.1215 54.457L69.865 54.3956L69.4054 54.5828L69.1568 54.8324L68.9518 55.1374L68.7557 55.3296L68.6973 55.6168L68.5586 55.7654L68.3932 56.0625V56.2358L68.5428 56.4042L68.3031 56.5597L68.0367 56.6082L67.899 56.7033L67.7524 56.9321L67.6157 57.1282L67.5355 57.1975L67.4127 57.1846L67.27 57.0321L67.0671 57.0391L66.8254 57.2272L66.5382 57.5333L66.1767 57.9997L65.7993 58.2473L65.3219 58.4573L64.9763 58.5504L64.7029 58.7099L64.2463 59.0327L64.1552 59.2229L63.8244 59.3348L63.558 59.4636L63.3114 59.6785L63.2509 60.0578L63.0945 60.2757L62.7171 60.5739L62.4002 60.8749L62.1932 61.1701L61.9743 61.4821L61.906 61.6534L61.8981 61.8881L62.0011 62.0852L62.0208 62.2724L61.9426 62.4081L61.7287 62.4596L61.5048 62.42L61.1612 62.2863L60.7957 62.0466L60.662 61.9287L60.4827 61.7267L60.5085 61.5395L60.6006 61.174L60.663 60.9235L60.5144 60.8036L60.4045 60.6749L60.3262 60.5511L60.1717 60.3064L59.9776 60.3669L59.8093 60.4273L59.6141 60.3411L59.0387 60.3787L58.6049 60.4065L58.1969 60.4322L57.6798 60.4659L57.0559 60.5065L56.8766 60.453L56.7647 60.3718L56.6518 60.0341L56.5864 59.7468L56.4656 59.209L56.3844 58.7921L56.2883 58.2949L56.2249 57.7442L56.1793 57.352L55.7069 57.3391L55.3296 57.3293L54.8195 57.3154L54.8235 57.0024L54.8294 56.6072L54.8364 56.1566L54.9314 55.5643L54.9671 55.0671L55.0117 54.458L55.0394 54.0549L55.0711 53.6102L54.8076 53.7479L54.5174 53.8994L54.245 54.041L54.0579 53.6815L53.8756 53.3309L53.5993 52.7971L53.3923 52.3969L53.0328 52.1622L52.7644 51.9889L52.488 51.6967L52.2494 51.3927L52.0226 51.1035L51.7512 50.8529L51.4907 50.9321L51.1966 51.0896L50.9133 51.2401L50.6132 51.4006L50.4666 51.4788L50.118 51.4491L49.8139 51.4234L49.2702 51.3768L48.8116 51.3372L48.3431 51.2966L47.6905 51.2401L47.0289 51.1837L46.5871 51.2589L46.0266 51.353L45.4383 51.4521L44.9519 51.5343L44.3359 51.6373L43.8754 51.7146L43.6486 51.7036L43.3633 51.3788L42.9057 50.8569L42.6294 50.5399L42.3581 50.2289L41.9659 49.7803L41.6509 49.4396L41.3429 49.1068L41.1656 48.7988L41.0774 48.4105L40.917 48.2342L40.5604 47.9965L40.1762 47.741L39.7919 47.4854L39.4076 47.2299L39.0233 46.9734L38.639 46.7169L38.2547 46.4604L37.8705 46.2029L37.4862 45.9453L37.1019 45.6878L36.7176 45.4293L36.3422 45.1738L35.9579 44.9153L35.5736 44.6558L35.1894 44.3963L34.8051 44.1368L34.4208 43.8774L34.1049 43.6882L33.8107 43.7377L33.371 43.8704L32.9094 44.0091L32.4528 44.1467L31.6348 44.3924L31.1088 44.5508L30.6978 44.6836L30.2601 44.8252L29.6856 45.0104L29.2043 45.1659L28.6407 45.3481L28.1405 45.5096L27.7207 45.6443L27.2829 45.7859L26.9362 45.8968V46.7941V47.6875L26.9372 48.5779V49.4653V50.3488L26.9382 51.2283V52.1048V52.9773V53.8469L26.9392 54.7135V55.5772V56.4378L26.9402 57.2946V58.1483V58.9991L26.9411 59.8469L26.8223 59.8399L26.5559 59.8895L26.1102 60.0073L25.7398 60.0667L25.5774 60.0301L25.4318 59.942L25.304 59.7558L25.1138 59.529L24.9187 59.3447L24.6761 58.9674L24.5077 58.6772L24.0927 58.0414L24.0343 57.8403L23.957 57.6353L23.8184 57.4639L23.3291 57.043L22.7596 56.6627L22.201 56.2893L22.0435 56.1982L21.7821 56.0823L21.4602 56.0803L21.2403 56.1031L20.5708 56.2269L20.0567 56.3715L19.3605 56.5676L18.8207 56.7845L18.6999 56.8479L18.3057 57.1094L17.8233 57.5432L17.2598 58.1533L17.1865 57.761L17.1618 57.1559L17.1717 56.9608L17.3252 56.4507L17.4806 56.1001L17.6055 55.7347L17.6619 55.2563L17.5461 54.4858L17.4163 54.3144L17.2608 54.2589L17.0944 54.2431L16.7884 54.2748L16.6458 54.3372L16.3971 54.0767L16.0971 54.0351L15.9386 54.1074L15.7781 54.145L15.6038 54.0727L15.4533 53.9182L15.3612 53.7519L15.2899 53.5637L15.0542 53.1853L14.8204 52.9793L14.5371 52.9338L14.0746 52.9456L13.929 52.9199L13.9211 52.705L13.9795 52.2296L13.9805 51.981L13.9479 51.7462L13.8706 51.5531L13.7726 51.3857L13.4972 51.1104L13.2892 50.7221L12.9416 49.9209L12.6375 49.0176L12.5038 48.8809L12.2325 48.7373L11.6392 48.6225L11.248 48.5036L11.0944 48.3887L11.03 48.1896L11.032 47.9757L11.0637 47.7232L11.1549 47.5092L11.4658 47.3438L12.1423 47.3072L12.7198 47.325L13.2437 47.7073L13.415 47.7945L13.6012 47.8192L13.9716 47.6984L14.1558 47.6637L14.6193 47.7033L14.4807 47.5221L14.3064 47.427L14.1261 47.4349L13.9707 47.3607L13.7141 47.0101L13.2694 46.6099L13.1664 46.4445L13.1347 46.1791L13.2209 45.9503L13.5358 45.7156L13.8042 45.3957L13.926 44.9708L14.036 44.7747L14.2638 44.4667L14.6085 44.5261L15.1453 44.3032L16.0238 44.3468L17.0756 44.2834L17.3648 44.3062L18.0353 44.5241L18.4206 44.6182L18.889 44.6657L19.2268 44.5696L18.9089 44.2725L18.2185 43.92L18.0413 43.6189L18.3572 42.7988L18.785 42.049L19.0466 41.1557L18.9732 40.2643L18.8485 40.0177L18.889 39.7275L19.0376 39.4819L19.1426 39.2372L19.0515 38.9421L18.8633 38.4806L18.7662 38.331L18.4364 38.0814L17.7738 38.0705L17.233 37.9338L17.0577 38.0438L16.9587 38.2122L16.8349 38.3231L16.414 38.5469L16.2733 38.5915L16.1267 38.5469L15.9198 38.2953L15.7356 38.3231L15.178 38.1656L14.9155 37.8229L14.8174 37.7754L13.9161 37.501L13.6032 37.4485L12.8851 37.7308L12.3652 38.0923L12.2186 38.1448L11.9502 38.3736L11.7986 38.4102L11.6431 38.3706L11.4956 38.3845L11.1816 38.7272L10.6131 39.1253L10.3308 39.3759L10.0159 39.5314L9.66525 39.6295L9.30775 39.6453L9.17603 39.7354L8.76696 39.7671L8.51736 39.8404L8.50847 39.9761L8.55798 40.2791L8.34604 40.1722L8.12316 40.3782L8.19649 40.5723L8.06277 40.5258L7.43681 40.1514L6.9228 39.886L6.46622 39.6502L6.39984 39.6077L6.27507 39.4928L6.18591 39.3135L6.16711 39.1174L6.21166 38.9728L6.32259 38.8807L6.45334 38.845L6.56923 38.8747L6.69798 38.9629L6.92776 39.0699L7.22584 39.0897L7.41209 39.0075L7.43681 38.8103L7.08227 38.0794L6.75541 37.4881L6.4395 36.8285L6.30578 36.5889L5.91854 36.0342L5.53619 35.4865L5.23412 34.9973L5.07568 34.8467L4.58839 34.7843L3.65938 34.6635L3.33053 34.606L3.06709 34.7516L2.80268 34.8655L2.55205 34.6536L2.35402 34.3049L2.24998 34.0118L2.30052 33.7117L2.32131 33.268L2.16976 32.8302L2.00238 32.6133L1.58243 32.4499L1.04762 32.0805L0.903992 31.404L1.16351 30.4314L1.58146 29.7401L1.88553 29.4499L2.03012 29.1963L2.07764 28.9765L2.041 28.7665L1.86074 28.5427L1.58146 28.3248L1.43982 28.0564L1.49828 27.48L1.6835 26.647L1.96871 25.9785L2.35099 25.6071L2.68081 25.3407L2.8106 25.0921L2.81749 24.7385L2.80957 24.4047L2.89771 24.1621L3.03638 23.9689L3.18297 23.7956L3.38899 23.6015L3.65642 23.5539L3.95057 23.7084L4.35069 24.1234L4.937 24.9405L5.27178 25.4743L5.39262 25.6388L5.69862 25.9557L5.97494 26.0835L6.43551 25.8854L6.87722 25.6546L7.01988 25.508L7.11098 25.2892L7.04068 24.9148L6.94855 24.6701L6.8505 24.3582L6.71479 23.8144L6.61873 22.9587L6.50485 22.6863L6.58803 22.6546L6.80988 22.7111L7.01493 22.7359L7.30805 22.5467L7.71017 22.1901L8.44609 21.6385L8.60157 21.274L8.72737 20.8679L8.93139 20.6183L9.39982 20.5361L9.83367 20.4054L10.1397 20.1162L10.619 19.8616L11.0132 19.7071L11.1866 19.5645L11.3104 19.3506L11.762 18.7464L12.1166 18.3741L12.4286 17.9898L12.5325 17.7481L12.7792 17.7927L13.1555 17.9601L13.5596 18.1126L13.8557 18.3493L13.9142 18.5909L13.9429 18.7811L14.0627 18.8791L14.2064 18.898L14.4223 18.8504L14.7996 18.8415L15.2621 18.5285L15.9059 17.9997L16.4952 17.8353L16.8052 17.961L17.0617 18.3503L17.2648 18.7157L17.4738 18.8514L17.6035 18.8554L17.651 18.8613L17.9105 18.7781L17.9303 18.7791L18.1671 18.794L18.3948 18.9178L18.7722 18.9316L19.2981 18.8376L19.3536 18.7989L19.6061 18.8494L19.9132 19.0178L20.1518 19.2179L20.5797 19.8735L20.8253 20.0419L21.3264 20.2746L21.5612 20.4777L21.8345 20.8065L21.9772 21.0056L22.2743 21.3651L22.618 21.9524L22.6794 22.4189L22.7576 22.8121L22.8854 22.9983L22.9904 23.0211L23.1033 22.9567L23.2142 22.7774L23.2528 22.4783L23.2191 21.9485L23.131 21.5147L23.0181 21.377L22.9636 21.2245L23.0379 21.0303L23.2291 20.9362L23.4668 20.9957L23.858 21.2453L24.266 21.5592L24.7682 22.1079L25.2287 22.4555L25.7329 22.7329L26.133 22.8151L26.443 22.7319L26.8085 22.5061L27.1432 22.2446L27.2957 21.9702L27.4047 21.6701L27.9098 21.269L28.3713 20.9016L28.5813 20.9679L28.7288 21.072L29.2023 20.8481L29.3667 20.7867L29.8174 20.6996L30.2828 20.8283L30.6542 21.2225L31.0137 21.476L31.3356 21.4463L31.6021 21.3166L31.7784 21.071L31.9121 20.7808L32.0904 20.5945L32.1171 20.5827L32.6905 20.6837L33.0501 20.6688L33.0887 20.6273L33.5631 20.7065L34.087 21.1155L34.4119 21.5681L34.8279 22.1436L35.021 22.3308L35.3023 22.411L35.5232 22.4457L35.8193 22.5348L36.6017 22.6546L36.7206 22.7249L36.8008 22.819L36.7285 23.132L36.7978 23.2112L37.4327 22.9884L37.603 22.822L37.812 22.3486L37.9992 21.8712L38.1389 21.6939L38.2864 21.6474L38.435 21.7187L38.643 22.001L38.9242 22.2882L39.3046 22.3971L39.5364 22.4407L39.8959 22.4645L40.7417 22.3248L41.533 21.9772L41.9847 21.5988L42.1946 21.0303L42.3263 20.3826L42.5284 19.9726L42.4442 19.5526L42.0461 19.1525L41.9114 19.0317L40.9427 18.8068L40.8833 18.6444L40.8278 18.6068L39.8731 18.2502L39.4135 18.0977L39.2838 17.862L39.1986 17.553L38.9005 17.2767L38.3082 17.0251L38.2052 16.833L38.3033 16.6388L38.7707 16.4229L39.3046 15.9673L39.5096 15.8732L39.984 15.8524L40.4238 15.479L40.7268 15.2651L40.8853 15.0106L40.8437 14.7471L40.4039 13.9498L40.2732 13.4655L40.3515 13.1496L40.604 12.8079L40.7476 12.6207L40.9199 12.2839L41.0329 12.1037L41.4766 12.0274L42.0143 11.9957L42.3838 12.076L42.8998 12.1176L43.3702 12.1799L43.6079 12.2354L43.7832 12.1324L43.91 11.9512L43.9061 11.7115L43.7209 11.4787L43.0305 11.1727L42.7344 10.9201L42.5027 10.9479L42.1144 10.8686L41.7638 10.7032L41.4538 10.6478L41.3528 10.418L41.4162 10.0951L41.536 9.9099L41.7648 9.81781L42.0134 9.86435L42.2838 9.72964L42.362 9.65042L42.3848 9.54841L42.3412 9.40281L42.2154 9.28297L42.0371 9.25129L41.8321 9.3533L41.5865 9.41965L41.1715 9.27009L40.8407 9.08983L40.8576 8.92344L41.1022 8.67487L41.2121 8.47281V8.1935V7.86668L41.2973 7.48339L41.54 7.22092L41.8252 7.08028L42.5601 7.3368L43.4792 7.56557L43.6366 7.52794L43.6833 7.4071L43.7882 7.30017L45.0639 7.25063L45.3115 7.10307L45.4353 6.98519L46.6614 6.81584L46.807 6.6544L46.9873 6.50385L47.2695 6.50681L47.6053 6.44642L48.0738 6.2622L48.4055 6.16116L48.461 6.15324L48.8116 6.19386L49.2464 6.04827L49.3405 5.98785L49.4108 5.87792L49.7901 5.66595L50.5181 5.49164L50.6954 5.59564L51.043 5.64319L51.4858 5.56494L51.8126 5.43122L52.0027 5.56394L52.2612 5.70062L52.4544 5.58473L52.5504 5.21928L52.6753 4.86175L52.8941 4.69236L53.0675 4.62998L53.224 4.4923L53.3418 4.3487L53.9826 4.3705L54.556 4.01296L54.669 4.17539L55.4138 4.13773L56.3388 3.90696L56.8925 3.79903L57.8482 3.55735L58.29 3.36125L58.9228 3.23744L59.5032 3.15127L59.8825 2.80761L60.1886 2.75907L60.561 2.73035L60.7888 2.64814L60.9373 2.52138L61.0334 2.28269L60.9809 1.97763L60.9274 1.75577L61.1939 1.63197L61.5742 1.59334L61.8139 1.54284L62.3368 1.03771L62.6973 0.795064L63.0707 0.642548L63.8204 0.725758L64.5048 0.802016L65.1912 1.04367L65.5517 1.34477L65.8617 1.57155L66.1549 1.67951L66.4203 1.74885L66.7283 1.64584L66.9462 1.5072L67.073 1.30811L67.2652 1.1655L67.9653 1.05458L68.1099 1.26948L68.4427 1.91624L68.6695 2.77494L69.0429 3.90896L69.2074 4.46459L69.1351 4.75478L69.136 5.15194L69.1152 5.58773L68.8399 6.07994L68.9518 6.30875L69.6283 6.56328L70.5751 6.47018L71.1594 6.26417L71.4853 6.33946L71.6557 6.21565L71.7656 5.85117L71.9904 5.76896L72.2212 6.02351L72.3886 6.45335L72.549 6.72966L72.5372 7.05849L72.5966 7.47943L72.7144 7.5854L72.9462 7.42593L73.1007 7.33084L73.1373 7.20308L73.072 7.04561L73.0413 6.88517L73.0928 6.73758L73.2027 6.67716L73.5325 6.72374L74.0129 6.80496L74.5833 7.40314L74.8913 7.51111L75.0211 7.52202L75.3103 7.48735L75.658 7.316L75.8917 7.10008L75.9699 6.99411L76.1046 7.01294L76.2324 7.11295L76.2413 7.33084L76.1393 7.64582L75.7926 7.93402L75.3618 8.20142L75.1003 8.69071L75.0449 9.19979L75.1588 9.45828L75.2568 9.63062L75.2846 9.87227L75.3816 9.90398L75.5579 9.80493L76.0383 9.30377L76.2829 9.17996L76.6374 9.10074L77.2209 9.14034L77.6131 9.30377L77.8002 9.53058L78.0062 9.71776L78.1488 9.63954L78.2222 9.42361L78.2261 9.176L78.2865 8.97198L78.9243 8.46985L79.3493 8.13508L79.4948 8.09545L79.7791 8.16479L79.9554 8.12912L80.4219 7.81418L80.8577 7.45465L80.9002 7.211L80.9171 6.99015L81.025 6.89013L81.6351 6.81287L81.7361 6.77126L82.2571 6.51969L82.9791 6.08986L83.3297 5.8363L83.9686 5.72341L84.0874 5.65011L84.2994 5.47876L84.6995 5.24107L84.9164 5.21532L84.7817 5.78975L84.543 6.45135L84.4083 6.62766L83.7606 6.59794L83.7615 6.77821L83.8636 7.05353L83.9368 7.20804L84.0151 7.34671L84.1894 7.5864L84.8709 8.14992L85.7375 8.86502L86.6734 9.66529L87.3271 10.2219L87.5915 10.5091L87.7599 10.7329L88.2412 11.5392L88.6988 12.3008L89.4703 13.6359L90.1527 14.9175L90.9054 16.3189L91.3403 17.1251L92.2297 18.8019L92.4674 19.3139L92.918 20.2806L93.3152 21.1829L93.6668 21.9772L93.8886 22.0485L93.9064 21.8336L93.946 21.69L94.059 21.6088L94.3185 21.374L94.4581 21.3176L94.6661 21.3413L94.884 21.2215L94.9642 20.9957L94.9117 20.5767L94.878 20.3836L94.9523 20.1756L95.0711 20.0944L95.2365 20.029L95.3891 19.9954L95.5139 19.7606L95.7496 19.6893L95.9665 19.7329L96.1448 19.7418L96.3023 19.9132L96.3904 20.1479L96.5608 20.1667L96.8391 20.1429L96.8777 20.339L96.7985 20.6668L96.7004 20.9204L96.6835 21.1235L96.8312 21.2225L97.3719 21.1343L97.563 21.1779L97.6244 21.3839L97.7017 21.5543L97.7394 21.7623L97.6829 21.992L97.78 22.1297L98.2464 22.1327L98.5753 22.0218L99.0804 22.0128L99.537 22.2565L99.8529 22.2189L100.171 22.1198L100.637 22.1822L100.965 21.9901L101.191 21.7494L101.261 21.5602L101.379 21.4552L101.819 21.4562L102.096 21.4374L102.301 21.1591L102.488 21.0333L102.803 21.0095H103.035L103.658 21.2681L104.037 21.482L104.432 21.786L104.668 21.9762L104.828 22.405L105.096 22.72L105.31 23.0874L105.362 23.449L105.538 24.0977L105.72 24.3106H105.936L106.208 24.3988L106.51 24.4691L107.153 24.9494L107.39 24.9633L107.572 25.0782L107.6 25.299L107.533 25.5546L107.603 25.7992L107.814 26.1112L107.98 26.4153L108.185 26.7837L108.248 26.9936L108.412 27.063L108.634 26.959L108.987 27.0382L110.047 27.2472L110.195 27.273L110.308 27.4909L110.461 27.473L110.638 27.4641L110.882 27.4899L111.053 27.2888L111.192 27.1125L111.542 26.8946L111.832 26.5985L112.076 26.335L112.258 26.3004L112.405 26.4232L112.411 26.651L112.229 26.8174L112.087 27.0184L112.12 27.2195L112.365 27.2373L112.636 27.5394L113.028 28.2455L113.161 28.3931L113.355 28.5318L113.57 28.5942L113.808 28.6952L113.984 28.9854L114.068 29.2488ZM11.1915 45.984L11.0955 46.0375L11.037 45.7879L11.144 45.5779L11.2965 45.5502L11.244 45.882L11.1915 45.984ZM10.8389 46.4435L10.7389 46.5535L10.5903 46.5366L10.312 46.1217L10.3902 45.6997L10.4913 45.6136L10.6319 45.5541L10.6507 45.6472L10.4536 45.8364L10.4348 46.0751L10.6002 46.3395L10.8389 46.4435Z"/>
</mask>
<path d="M114.068 29.2488L113.811 29.1647L113.306 29.1468L112.998 29.1993L112.853 29.229L112.637 29.4024L112.484 29.5747L112.416 29.8679L112.498 30.1987L112.387 30.886L112.236 31.1445L111.919 31.5932L111.735 31.6902L111.426 31.7705L111.129 31.9032L110.546 32.0319L109.918 32.0973L109.694 32.1934L109.534 32.4994L109.421 32.7539L109.352 32.9481L109.174 33.58L109.073 34.1435L109.172 34.8417L109.246 35.6153L109.241 35.8817L109.395 36.2759L109.472 36.5176L109.435 36.8602L109.214 37.1296L109.082 37.4862L108.957 37.6377L108.597 37.706L108.259 37.7476L107.917 38.0537L107.644 38.2646L107.216 38.533L107.015 38.5836L106.904 38.4469L106.83 38.1428L106.684 38.0081L106.477 37.9972L106.31 37.9943L105.773 37.9121L105.428 37.918L105.17 37.9834L104.874 38.0161L104.364 37.9051L104.034 37.811L103.813 37.7209L103.283 37.4545L102.586 37.1375L102.301 37.0444L102.132 37.1395L102.106 37.3208L102.062 37.7595L101.98 38.0339L101.495 39.4165L101.195 40.3732L100.814 41.2874L100.693 41.8985L100.465 42.67L100.238 43.2276L100.146 43.5307L100.138 43.6545L100.178 43.8278L100.525 44.017L100.89 44.1329L100.97 44.2052L101.01 44.4013L100.996 44.7222L100.93 45.0253L100.825 45.263L100.721 45.3808L100.602 45.3877L100.374 45.2352L100.171 45.0649L100.013 45.0134L99.6132 45.1084L99.2428 45.2382L99.119 45.2422L98.9041 45.1589L98.6872 44.9866L98.601 44.6529L98.4148 44.5013L98.1652 44.6529L97.4224 44.9074L96.6043 45.2104L96.0844 45.367L95.8813 45.3432L95.4782 45.3788L95.1286 45.463L94.8661 45.5799L94.3482 45.7413L93.8777 45.8493L93.5746 46.0939L93.3568 46.3296L93.3657 46.4188L93.5242 46.5584L93.7054 46.6674L94.0678 46.6416L94.4214 46.6248L94.7156 46.7723L94.9791 46.8674L95.0514 46.9902L94.9791 47.1101L94.8265 47.1378L94.7731 47.221L94.7998 47.3329L94.6988 47.6241L94.6463 48.0649L94.6988 48.4986L94.7275 48.8978L94.7087 49.0988L94.6988 49.3851L94.8107 49.5782L94.9107 49.9457L95.09 50.1754L95.3603 50.9697L95.5198 51.4323L95.6664 51.9552L95.5604 52.2375L95.5674 52.4009L95.7397 52.5376L95.815 52.804L95.8952 52.9664L95.8734 53.1279L95.8001 53.1903L95.4267 53.0922L95.1207 53.2537L94.7959 53.4161L94.7523 53.5023L94.7433 53.5963L94.776 53.6786L94.9632 53.8232L95.2217 53.9133L95.2088 54.0579L94.8889 54.1242L94.4066 54.3451L94.2729 54.5818L94.1699 54.8423L94.1609 54.9928L94.2095 55.3959L94.2828 55.8416L94.4204 56.3111L94.4313 56.4557L94.3601 56.5587L94.2937 56.625L93.9104 56.2022L93.4924 55.7891L93.1656 55.6941L92.5961 55.6257L92.294 55.6227L92.1227 55.5247L91.9543 55.285L91.7533 55.0681L91.4957 54.8383L91.3907 54.4877L91.2848 54.4253L91.0986 54.4699L90.7876 54.459L90.6133 54.4283L90.3528 54.3679L89.9378 54.2243L89.61 54.0886L89.197 54.0628L88.9593 54.0896L88.2175 54.1153L87.6014 53.9727L87.1032 53.947L86.7962 53.9549L86.6496 53.937L86.3981 53.938L86.0276 53.9073L85.5324 53.6875L85.3403 53.6766L85.2184 53.6845L84.3905 53.8459L84.0091 53.8836L83.2 53.8647L82.4057 53.8469L82.1502 53.8132L82.0085 53.8301L81.7084 54.2173L81.5796 54.2777L80.8309 54.1936L79.9455 53.939L79.3057 53.6597L78.7629 53.3636L78.0439 52.8961L77.614 52.6653L77.5516 52.7981L77.4378 52.8407L77.2723 52.8615L76.891 52.8377L76.7147 53.0744L76.2492 53.2438L75.9531 53.3953L75.7986 53.5666L75.5035 54.6987L75.4242 55.1117L75.6223 55.805L75.3955 55.7644L75.1291 55.5871L75.037 55.4474L74.7804 55.3623L73.8475 55.2335L73.6731 55.0741L73.5642 54.9443L73.3225 54.8591L72.9809 54.7937L72.238 54.4927L71.9211 54.4818L70.9624 54.25L70.8059 54.252L70.7346 54.2619L70.3621 54.4135L70.1215 54.457L69.865 54.3956L69.4054 54.5828L69.1568 54.8324L68.9518 55.1374L68.7557 55.3296L68.6973 55.6168L68.5586 55.7654L68.3932 56.0625V56.2358L68.5428 56.4042L68.3031 56.5597L68.0367 56.6082L67.899 56.7033L67.7524 56.9321L67.6157 57.1282L67.5355 57.1975L67.4127 57.1846L67.27 57.0321L67.0671 57.0391L66.8254 57.2272L66.5382 57.5333L66.1767 57.9997L65.7993 58.2473L65.3219 58.4573L64.9763 58.5504L64.7029 58.7099L64.2463 59.0327L64.1552 59.2229L63.8244 59.3348L63.558 59.4636L63.3114 59.6785L63.2509 60.0578L63.0945 60.2757L62.7171 60.5739L62.4002 60.8749L62.1932 61.1701L61.9743 61.4821L61.906 61.6534L61.8981 61.8881L62.0011 62.0852L62.0208 62.2724L61.9426 62.4081L61.7287 62.4596L61.5048 62.42L61.1612 62.2863L60.7957 62.0466L60.662 61.9287L60.4827 61.7267L60.5085 61.5395L60.6006 61.174L60.663 60.9235L60.5144 60.8036L60.4045 60.6749L60.3262 60.5511L60.1717 60.3064L59.9776 60.3669L59.8093 60.4273L59.6141 60.3411L59.0387 60.3787L58.6049 60.4065L58.1969 60.4322L57.6798 60.4659L57.0559 60.5065L56.8766 60.453L56.7647 60.3718L56.6518 60.0341L56.5864 59.7468L56.4656 59.209L56.3844 58.7921L56.2883 58.2949L56.2249 57.7442L56.1793 57.352L55.7069 57.3391L55.3296 57.3293L54.8195 57.3154L54.8235 57.0024L54.8294 56.6072L54.8364 56.1566L54.9314 55.5643L54.9671 55.0671L55.0117 54.458L55.0394 54.0549L55.0711 53.6102L54.8076 53.7479L54.5174 53.8994L54.245 54.041L54.0579 53.6815L53.8756 53.3309L53.5993 52.7971L53.3923 52.3969L53.0328 52.1622L52.7644 51.9889L52.488 51.6967L52.2494 51.3927L52.0226 51.1035L51.7512 50.8529L51.4907 50.9321L51.1966 51.0896L50.9133 51.2401L50.6132 51.4006L50.4666 51.4788L50.118 51.4491L49.8139 51.4234L49.2702 51.3768L48.8116 51.3372L48.3431 51.2966L47.6905 51.2401L47.0289 51.1837L46.5871 51.2589L46.0266 51.353L45.4383 51.4521L44.9519 51.5343L44.3359 51.6373L43.8754 51.7146L43.6486 51.7036L43.3633 51.3788L42.9057 50.8569L42.6294 50.5399L42.3581 50.2289L41.9659 49.7803L41.6509 49.4396L41.3429 49.1068L41.1656 48.7988L41.0774 48.4105L40.917 48.2342L40.5604 47.9965L40.1762 47.741L39.7919 47.4854L39.4076 47.2299L39.0233 46.9734L38.639 46.7169L38.2547 46.4604L37.8705 46.2029L37.4862 45.9453L37.1019 45.6878L36.7176 45.4293L36.3422 45.1738L35.9579 44.9153L35.5736 44.6558L35.1894 44.3963L34.8051 44.1368L34.4208 43.8774L34.1049 43.6882L33.8107 43.7377L33.371 43.8704L32.9094 44.0091L32.4528 44.1467L31.6348 44.3924L31.1088 44.5508L30.6978 44.6836L30.2601 44.8252L29.6856 45.0104L29.2043 45.1659L28.6407 45.3481L28.1405 45.5096L27.7207 45.6443L27.2829 45.7859L26.9362 45.8968V46.7941V47.6875L26.9372 48.5779V49.4653V50.3488L26.9382 51.2283V52.1048V52.9773V53.8469L26.9392 54.7135V55.5772V56.4378L26.9402 57.2946V58.1483V58.9991L26.9411 59.8469L26.8223 59.8399L26.5559 59.8895L26.1102 60.0073L25.7398 60.0667L25.5774 60.0301L25.4318 59.942L25.304 59.7558L25.1138 59.529L24.9187 59.3447L24.6761 58.9674L24.5077 58.6772L24.0927 58.0414L24.0343 57.8403L23.957 57.6353L23.8184 57.4639L23.3291 57.043L22.7596 56.6627L22.201 56.2893L22.0435 56.1982L21.7821 56.0823L21.4602 56.0803L21.2403 56.1031L20.5708 56.2269L20.0567 56.3715L19.3605 56.5676L18.8207 56.7845L18.6999 56.8479L18.3057 57.1094L17.8233 57.5432L17.2598 58.1533L17.1865 57.761L17.1618 57.1559L17.1717 56.9608L17.3252 56.4507L17.4806 56.1001L17.6055 55.7347L17.6619 55.2563L17.5461 54.4858L17.4163 54.3144L17.2608 54.2589L17.0944 54.2431L16.7884 54.2748L16.6458 54.3372L16.3971 54.0767L16.0971 54.0351L15.9386 54.1074L15.7781 54.145L15.6038 54.0727L15.4533 53.9182L15.3612 53.7519L15.2899 53.5637L15.0542 53.1853L14.8204 52.9793L14.5371 52.9338L14.0746 52.9456L13.929 52.9199L13.9211 52.705L13.9795 52.2296L13.9805 51.981L13.9479 51.7462L13.8706 51.5531L13.7726 51.3857L13.4972 51.1104L13.2892 50.7221L12.9416 49.9209L12.6375 49.0176L12.5038 48.8809L12.2325 48.7373L11.6392 48.6225L11.248 48.5036L11.0944 48.3887L11.03 48.1896L11.032 47.9757L11.0637 47.7232L11.1549 47.5092L11.4658 47.3438L12.1423 47.3072L12.7198 47.325L13.2437 47.7073L13.415 47.7945L13.6012 47.8192L13.9716 47.6984L14.1558 47.6637L14.6193 47.7033L14.4807 47.5221L14.3064 47.427L14.1261 47.4349L13.9707 47.3607L13.7141 47.0101L13.2694 46.6099L13.1664 46.4445L13.1347 46.1791L13.2209 45.9503L13.5358 45.7156L13.8042 45.3957L13.926 44.9708L14.036 44.7747L14.2638 44.4667L14.6085 44.5261L15.1453 44.3032L16.0238 44.3468L17.0756 44.2834L17.3648 44.3062L18.0353 44.5241L18.4206 44.6182L18.889 44.6657L19.2268 44.5696L18.9089 44.2725L18.2185 43.92L18.0413 43.6189L18.3572 42.7988L18.785 42.049L19.0466 41.1557L18.9732 40.2643L18.8485 40.0177L18.889 39.7275L19.0376 39.4819L19.1426 39.2372L19.0515 38.9421L18.8633 38.4806L18.7662 38.331L18.4364 38.0814L17.7738 38.0705L17.233 37.9338L17.0577 38.0438L16.9587 38.2122L16.8349 38.3231L16.414 38.5469L16.2733 38.5915L16.1267 38.5469L15.9198 38.2953L15.7356 38.3231L15.178 38.1656L14.9155 37.8229L14.8174 37.7754L13.9161 37.501L13.6032 37.4485L12.8851 37.7308L12.3652 38.0923L12.2186 38.1448L11.9502 38.3736L11.7986 38.4102L11.6431 38.3706L11.4956 38.3845L11.1816 38.7272L10.6131 39.1253L10.3308 39.3759L10.0159 39.5314L9.66525 39.6295L9.30775 39.6453L9.17603 39.7354L8.76696 39.7671L8.51736 39.8404L8.50847 39.9761L8.55798 40.2791L8.34604 40.1722L8.12316 40.3782L8.19649 40.5723L8.06277 40.5258L7.43681 40.1514L6.9228 39.886L6.46622 39.6502L6.39984 39.6077L6.27507 39.4928L6.18591 39.3135L6.16711 39.1174L6.21166 38.9728L6.32259 38.8807L6.45334 38.845L6.56923 38.8747L6.69798 38.9629L6.92776 39.0699L7.22584 39.0897L7.41209 39.0075L7.43681 38.8103L7.08227 38.0794L6.75541 37.4881L6.4395 36.8285L6.30578 36.5889L5.91854 36.0342L5.53619 35.4865L5.23412 34.9973L5.07568 34.8467L4.58839 34.7843L3.65938 34.6635L3.33053 34.606L3.06709 34.7516L2.80268 34.8655L2.55205 34.6536L2.35402 34.3049L2.24998 34.0118L2.30052 33.7117L2.32131 33.268L2.16976 32.8302L2.00238 32.6133L1.58243 32.4499L1.04762 32.0805L0.903992 31.404L1.16351 30.4314L1.58146 29.7401L1.88553 29.4499L2.03012 29.1963L2.07764 28.9765L2.041 28.7665L1.86074 28.5427L1.58146 28.3248L1.43982 28.0564L1.49828 27.48L1.6835 26.647L1.96871 25.9785L2.35099 25.6071L2.68081 25.3407L2.8106 25.0921L2.81749 24.7385L2.80957 24.4047L2.89771 24.1621L3.03638 23.9689L3.18297 23.7956L3.38899 23.6015L3.65642 23.5539L3.95057 23.7084L4.35069 24.1234L4.937 24.9405L5.27178 25.4743L5.39262 25.6388L5.69862 25.9557L5.97494 26.0835L6.43551 25.8854L6.87722 25.6546L7.01988 25.508L7.11098 25.2892L7.04068 24.9148L6.94855 24.6701L6.8505 24.3582L6.71479 23.8144L6.61873 22.9587L6.50485 22.6863L6.58803 22.6546L6.80988 22.7111L7.01493 22.7359L7.30805 22.5467L7.71017 22.1901L8.44609 21.6385L8.60157 21.274L8.72737 20.8679L8.93139 20.6183L9.39982 20.5361L9.83367 20.4054L10.1397 20.1162L10.619 19.8616L11.0132 19.7071L11.1866 19.5645L11.3104 19.3506L11.762 18.7464L12.1166 18.3741L12.4286 17.9898L12.5325 17.7481L12.7792 17.7927L13.1555 17.9601L13.5596 18.1126L13.8557 18.3493L13.9142 18.5909L13.9429 18.7811L14.0627 18.8791L14.2064 18.898L14.4223 18.8504L14.7996 18.8415L15.2621 18.5285L15.9059 17.9997L16.4952 17.8353L16.8052 17.961L17.0617 18.3503L17.2648 18.7157L17.4738 18.8514L17.6035 18.8554L17.651 18.8613L17.9105 18.7781L17.9303 18.7791L18.1671 18.794L18.3948 18.9178L18.7722 18.9316L19.2981 18.8376L19.3536 18.7989L19.6061 18.8494L19.9132 19.0178L20.1518 19.2179L20.5797 19.8735L20.8253 20.0419L21.3264 20.2746L21.5612 20.4777L21.8345 20.8065L21.9772 21.0056L22.2743 21.3651L22.618 21.9524L22.6794 22.4189L22.7576 22.8121L22.8854 22.9983L22.9904 23.0211L23.1033 22.9567L23.2142 22.7774L23.2528 22.4783L23.2191 21.9485L23.131 21.5147L23.0181 21.377L22.9636 21.2245L23.0379 21.0303L23.2291 20.9362L23.4668 20.9957L23.858 21.2453L24.266 21.5592L24.7682 22.1079L25.2287 22.4555L25.7329 22.7329L26.133 22.8151L26.443 22.7319L26.8085 22.5061L27.1432 22.2446L27.2957 21.9702L27.4047 21.6701L27.9098 21.269L28.3713 20.9016L28.5813 20.9679L28.7288 21.072L29.2023 20.8481L29.3667 20.7867L29.8174 20.6996L30.2828 20.8283L30.6542 21.2225L31.0137 21.476L31.3356 21.4463L31.6021 21.3166L31.7784 21.071L31.9121 20.7808L32.0904 20.5945L32.1171 20.5827L32.6905 20.6837L33.0501 20.6688L33.0887 20.6273L33.5631 20.7065L34.087 21.1155L34.4119 21.5681L34.8279 22.1436L35.021 22.3308L35.3023 22.411L35.5232 22.4457L35.8193 22.5348L36.6017 22.6546L36.7206 22.7249L36.8008 22.819L36.7285 23.132L36.7978 23.2112L37.4327 22.9884L37.603 22.822L37.812 22.3486L37.9992 21.8712L38.1389 21.6939L38.2864 21.6474L38.435 21.7187L38.643 22.001L38.9242 22.2882L39.3046 22.3971L39.5364 22.4407L39.8959 22.4645L40.7417 22.3248L41.533 21.9772L41.9847 21.5988L42.1946 21.0303L42.3263 20.3826L42.5284 19.9726L42.4442 19.5526L42.0461 19.1525L41.9114 19.0317L40.9427 18.8068L40.8833 18.6444L40.8278 18.6068L39.8731 18.2502L39.4135 18.0977L39.2838 17.862L39.1986 17.553L38.9005 17.2767L38.3082 17.0251L38.2052 16.833L38.3033 16.6388L38.7707 16.4229L39.3046 15.9673L39.5096 15.8732L39.984 15.8524L40.4238 15.479L40.7268 15.2651L40.8853 15.0106L40.8437 14.7471L40.4039 13.9498L40.2732 13.4655L40.3515 13.1496L40.604 12.8079L40.7476 12.6207L40.9199 12.2839L41.0329 12.1037L41.4766 12.0274L42.0143 11.9957L42.3838 12.076L42.8998 12.1176L43.3702 12.1799L43.6079 12.2354L43.7832 12.1324L43.91 11.9512L43.9061 11.7115L43.7209 11.4787L43.0305 11.1727L42.7344 10.9201L42.5027 10.9479L42.1144 10.8686L41.7638 10.7032L41.4538 10.6478L41.3528 10.418L41.4162 10.0951L41.536 9.9099L41.7648 9.81781L42.0134 9.86435L42.2838 9.72964L42.362 9.65042L42.3848 9.54841L42.3412 9.40281L42.2154 9.28297L42.0371 9.25129L41.8321 9.3533L41.5865 9.41965L41.1715 9.27009L40.8407 9.08983L40.8576 8.92344L41.1022 8.67487L41.2121 8.47281V8.1935V7.86668L41.2973 7.48339L41.54 7.22092L41.8252 7.08028L42.5601 7.3368L43.4792 7.56557L43.6366 7.52794L43.6833 7.4071L43.7882 7.30017L45.0639 7.25063L45.3115 7.10307L45.4353 6.98519L46.6614 6.81584L46.807 6.6544L46.9873 6.50385L47.2695 6.50681L47.6053 6.44642L48.0738 6.2622L48.4055 6.16116L48.461 6.15324L48.8116 6.19386L49.2464 6.04827L49.3405 5.98785L49.4108 5.87792L49.7901 5.66595L50.5181 5.49164L50.6954 5.59564L51.043 5.64319L51.4858 5.56494L51.8126 5.43122L52.0027 5.56394L52.2612 5.70062L52.4544 5.58473L52.5504 5.21928L52.6753 4.86175L52.8941 4.69236L53.0675 4.62998L53.224 4.4923L53.3418 4.3487L53.9826 4.3705L54.556 4.01296L54.669 4.17539L55.4138 4.13773L56.3388 3.90696L56.8925 3.79903L57.8482 3.55735L58.29 3.36125L58.9228 3.23744L59.5032 3.15127L59.8825 2.80761L60.1886 2.75907L60.561 2.73035L60.7888 2.64814L60.9373 2.52138L61.0334 2.28269L60.9809 1.97763L60.9274 1.75577L61.1939 1.63197L61.5742 1.59334L61.8139 1.54284L62.3368 1.03771L62.6973 0.795064L63.0707 0.642548L63.8204 0.725758L64.5048 0.802016L65.1912 1.04367L65.5517 1.34477L65.8617 1.57155L66.1549 1.67951L66.4203 1.74885L66.7283 1.64584L66.9462 1.5072L67.073 1.30811L67.2652 1.1655L67.9653 1.05458L68.1099 1.26948L68.4427 1.91624L68.6695 2.77494L69.0429 3.90896L69.2074 4.46459L69.1351 4.75478L69.136 5.15194L69.1152 5.58773L68.8399 6.07994L68.9518 6.30875L69.6283 6.56328L70.5751 6.47018L71.1594 6.26417L71.4853 6.33946L71.6557 6.21565L71.7656 5.85117L71.9904 5.76896L72.2212 6.02351L72.3886 6.45335L72.549 6.72966L72.5372 7.05849L72.5966 7.47943L72.7144 7.5854L72.9462 7.42593L73.1007 7.33084L73.1373 7.20308L73.072 7.04561L73.0413 6.88517L73.0928 6.73758L73.2027 6.67716L73.5325 6.72374L74.0129 6.80496L74.5833 7.40314L74.8913 7.51111L75.0211 7.52202L75.3103 7.48735L75.658 7.316L75.8917 7.10008L75.9699 6.99411L76.1046 7.01294L76.2324 7.11295L76.2413 7.33084L76.1393 7.64582L75.7926 7.93402L75.3618 8.20142L75.1003 8.69071L75.0449 9.19979L75.1588 9.45828L75.2568 9.63062L75.2846 9.87227L75.3816 9.90398L75.5579 9.80493L76.0383 9.30377L76.2829 9.17996L76.6374 9.10074L77.2209 9.14034L77.6131 9.30377L77.8002 9.53058L78.0062 9.71776L78.1488 9.63954L78.2222 9.42361L78.2261 9.176L78.2865 8.97198L78.9243 8.46985L79.3493 8.13508L79.4948 8.09545L79.7791 8.16479L79.9554 8.12912L80.4219 7.81418L80.8577 7.45465L80.9002 7.211L80.9171 6.99015L81.025 6.89013L81.6351 6.81287L81.7361 6.77126L82.2571 6.51969L82.9791 6.08986L83.3297 5.8363L83.9686 5.72341L84.0874 5.65011L84.2994 5.47876L84.6995 5.24107L84.9164 5.21532L84.7817 5.78975L84.543 6.45135L84.4083 6.62766L83.7606 6.59794L83.7615 6.77821L83.8636 7.05353L83.9368 7.20804L84.0151 7.34671L84.1894 7.5864L84.8709 8.14992L85.7375 8.86502L86.6734 9.66529L87.3271 10.2219L87.5915 10.5091L87.7599 10.7329L88.2412 11.5392L88.6988 12.3008L89.4703 13.6359L90.1527 14.9175L90.9054 16.3189L91.3403 17.1251L92.2297 18.8019L92.4674 19.3139L92.918 20.2806L93.3152 21.1829L93.6668 21.9772L93.8886 22.0485L93.9064 21.8336L93.946 21.69L94.059 21.6088L94.3185 21.374L94.4581 21.3176L94.6661 21.3413L94.884 21.2215L94.9642 20.9957L94.9117 20.5767L94.878 20.3836L94.9523 20.1756L95.0711 20.0944L95.2365 20.029L95.3891 19.9954L95.5139 19.7606L95.7496 19.6893L95.9665 19.7329L96.1448 19.7418L96.3023 19.9132L96.3904 20.1479L96.5608 20.1667L96.8391 20.1429L96.8777 20.339L96.7985 20.6668L96.7004 20.9204L96.6835 21.1235L96.8312 21.2225L97.3719 21.1343L97.563 21.1779L97.6244 21.3839L97.7017 21.5543L97.7394 21.7623L97.6829 21.992L97.78 22.1297L98.2464 22.1327L98.5753 22.0218L99.0804 22.0128L99.537 22.2565L99.8529 22.2189L100.171 22.1198L100.637 22.1822L100.965 21.9901L101.191 21.7494L101.261 21.5602L101.379 21.4552L101.819 21.4562L102.096 21.4374L102.301 21.1591L102.488 21.0333L102.803 21.0095H103.035L103.658 21.2681L104.037 21.482L104.432 21.786L104.668 21.9762L104.828 22.405L105.096 22.72L105.31 23.0874L105.362 23.449L105.538 24.0977L105.72 24.3106H105.936L106.208 24.3988L106.51 24.4691L107.153 24.9494L107.39 24.9633L107.572 25.0782L107.6 25.299L107.533 25.5546L107.603 25.7992L107.814 26.1112L107.98 26.4153L108.185 26.7837L108.248 26.9936L108.412 27.063L108.634 26.959L108.987 27.0382L110.047 27.2472L110.195 27.273L110.308 27.4909L110.461 27.473L110.638 27.4641L110.882 27.4899L111.053 27.2888L111.192 27.1125L111.542 26.8946L111.832 26.5985L112.076 26.335L112.258 26.3004L112.405 26.4232L112.411 26.651L112.229 26.8174L112.087 27.0184L112.12 27.2195L112.365 27.2373L112.636 27.5394L113.028 28.2455L113.161 28.3931L113.355 28.5318L113.57 28.5942L113.808 28.6952L113.984 28.9854L114.068 29.2488ZM11.1915 45.984L11.0955 46.0375L11.037 45.7879L11.144 45.5779L11.2965 45.5502L11.244 45.882L11.1915 45.984ZM10.8389 46.4435L10.7389 46.5535L10.5903 46.5366L10.312 46.1217L10.3902 45.6997L10.4913 45.6136L10.6319 45.5541L10.6507 45.6472L10.4536 45.8364L10.4348 46.0751L10.6002 46.3395L10.8389 46.4435Z" fill="#374151" stroke="white" stroke-width="0.2" mask="url(#path-1-inside-1_1_134)"/>
</svg>
