<svg width="171" height="126" viewBox="0 0 171 126" fill="none" xmlns="http://www.w3.org/2000/svg">
<mask id="path-1-inside-1_1_54" fill="white">
<path d="M104.572 120.119L104.71 120.25L104.801 120.439L104.875 120.787L104.919 121.108L104.639 121.312L104.388 121.394L103.883 122.176L103.778 122.423L103.693 122.526L103.667 122.632L103.676 122.739L103.546 123.114L103.431 123.574L103.358 123.763L103.213 123.907L103.03 123.98L102.911 123.991L102.803 124.031L102.536 124.282L102.236 124.47L102.287 124.556L102.29 124.638L102.158 124.729L102.013 124.711L101.59 124.786L101.435 124.926L101.277 125.186L101.216 125.221L100.961 125.282L100.767 125.305L100.435 125.121L100.27 125.068L99.8326 124.994L99.4058 124.87L99.1067 124.728L98.4936 124.382L98.4223 123.755L98.3173 123.416L98.3104 123.295L98.351 122.25L98.3936 122.135L98.4718 122.035L98.7422 121.802L99.0522 121.616L99.4969 121.228L99.8198 121.051L100.09 120.795L99.9317 120.806L99.8148 120.773L99.9297 120.555L100.054 120.438L100.197 120.374L100.484 120.42L100.75 120.374L100.946 120.18L101.132 120.139L101.841 120.202L102.332 120.113L102.578 119.934L102.694 119.927L103.056 119.977L103.191 120.163L103.179 120.039L103.195 119.917L103.261 119.93L103.736 120.16L103.737 119.878L103.764 119.804L103.911 119.686L103.985 119.688L104.17 119.916L104.349 120.049L104.572 120.119ZM103.172 116.869L103.275 116.972L103.551 116.9L103.601 117.031L103.599 117.092L103.501 117.243L103.273 117.127L103.047 117.154L102.882 117.144L102.838 117.072L102.963 116.926L103.172 116.869ZM109.451 115.247L109.178 115.309L109.12 115.296L109.215 115.143L109.462 115.037L109.451 115.247ZM109.858 115.36L109.804 115.419L109.723 115.311L109.7 115.157L109.642 115.074L109.775 114.969L109.835 114.853L109.993 114.876L110.059 114.91L109.919 115.031L109.886 115.083L109.858 115.36ZM111.984 111.771L112.007 111.909L111.79 111.698L111.728 111.686L111.625 111.607L111.564 111.474L111.733 111.469L111.887 111.627L111.984 111.771ZM124.848 106.665L124.755 106.848L124.59 106.817L124.585 106.688L124.552 106.65L124.597 106.529L124.627 106.496L124.813 106.599L124.848 106.665ZM129.401 103.735L129.194 103.877L129.065 103.81L129.063 103.619L129.128 103.448L129.053 103.324L129.126 103.178L129.28 103.134L129.335 103.226L129.421 103.275L129.448 103.325L129.449 103.421L129.367 103.58L129.431 103.666L129.401 103.735ZM133.376 95.592L133.134 95.6673H133.042L133.05 95.4395L133.248 95.2226L133.329 95.2949L133.374 95.4079L133.376 95.592ZM135.936 90.5617L135.927 90.6211L135.69 90.4141L135.576 90.3805L135.63 90.2626L135.79 90.2329L135.917 90.4924L135.936 90.5617ZM136.58 89.8823L136.553 90.0298L136.479 90.009L136.38 89.7466L136.434 89.6822L136.574 89.6981L136.58 89.8823ZM136.28 89.6555L136.239 89.7179L135.896 89.5346L135.523 89.496L135.395 89.3346L135.372 89.081L135.764 89.0919L136.247 89.3207L136.351 89.4376L136.28 89.6555ZM135.075 84.7351L134.847 84.8282L134.124 84.5499L133.613 84.2438L133.308 83.8724L133.264 83.7189L133.62 83.7447L133.967 83.8783L134.045 84.0824L134.185 84.1468L134.28 84.2656L134.924 84.5419L135.023 84.6251L135.075 84.7351ZM139.597 0.52264L139.723 0.536514L139.792 0.535516L139.926 0.442422L140.295 0.607815L141.001 1.09907L141.444 1.31696L141.627 1.26346L141.825 1.39917L142.042 1.72403L142.311 1.91518L142.794 2.00331L143.273 2.35789L143.467 2.37768L143.534 2.17862L143.713 2.06473L144.002 2.03502L144.421 2.21033L144.969 2.58965L145.313 2.75604L145.452 2.71046L145.599 2.7808L145.717 2.95807L145.728 3.17696L145.687 3.29384L145.819 3.47806H145.97L146.218 3.5662L146.412 3.89106L146.586 4.04161L146.708 4.17134L146.73 4.2793L146.741 4.38823L146.705 4.47244L146.639 4.61208L146.618 4.76164L146.702 4.93002L147.01 5.05183L147.114 5.17763L147.138 5.33806L147.234 5.51533L147.444 5.72035L147.523 5.8917L147.475 6.02937L147.537 6.14426L147.64 6.23439L147.662 6.56025L147.671 6.74743L147.84 6.95741L147.875 7.38724L147.993 7.86166L148.39 8.51038L148.522 8.86099L148.488 9.27695L148.545 9.47208L148.727 9.56618L148.813 9.74145L148.803 9.99797L148.873 10.1574L148.931 10.3268L148.892 10.5903L148.95 10.827L149.043 10.9656L149.108 11.2212L149.145 11.5401L149.411 12.0432L149.905 12.7305L150.208 13.2634L150.318 13.6417L150.319 13.9527L150.211 14.1964L150.205 14.3736L150.302 14.4846L150.331 14.6341L150.293 14.8233L150.453 15.0472L150.996 15.4354L150.779 16.0297L150.721 16.4466L150.75 16.8844L150.885 17.1924L151.124 17.3707L151.272 17.5569L151.331 17.751L151.618 17.962L152.133 18.1907L152.793 18.2314L153.599 18.0818L154.091 18.057L154.272 18.1561L154.334 18.3066L154.276 18.5077L154.413 18.6394L154.744 18.7028L154.97 18.8286L155.095 19.0187L155.248 19.0722L155.429 18.99L155.605 19.0019L155.777 19.1069L155.887 19.0702L155.985 18.9553H156.14L156.299 18.9573L156.398 19.2356L156.559 19.3921L156.781 19.4268L157.119 19.7645L157.798 20.7242L158.24 21.0639L158.682 21.1699L159.233 21.1917L159.411 21.5621L159.267 21.9533L159.23 22.2792L159.355 22.3961L159.527 22.7784L159.771 23.0002L159.817 23.1755L159.93 23.3716L159.883 23.7331L159.674 24.261L159.731 24.7107L160.054 25.0821L160.24 25.4396L160.289 25.7823L160.369 25.9903L160.483 26.0636L160.814 26.0378L161.363 25.914L161.766 25.9348L162.023 26.1022L162.658 26.1082L163.671 25.9537L164.311 25.9061L164.578 25.9655L164.816 25.7447L165.025 25.2425L165.22 25.0068L165.403 25.0365L165.693 24.8751L166.09 24.5215L166.434 24.3501L166.871 24.368L167.337 24.3858L167.628 24.2373L167.901 23.9273L168.376 23.6529L169.387 23.2934L169.63 23.2369L169.745 23.2567L170.082 23.3132L170.381 23.4538L170.664 23.7361L170.707 23.9174L170.675 24.155L170.613 24.2927L170.497 24.4472L170.388 24.6978L170.459 24.8929L170.622 25.3099L170.757 25.611L170.905 25.9655L170.839 26.0923L170.749 26.3379L170.472 26.7529L170.322 26.9114L170.159 27.0659L169.879 27.1035L169.759 27.1392L169.624 27.2046L169.538 27.3511L169.441 27.4541L169.281 27.6601L169.268 27.8374L169.34 28.1009L169.376 28.3703L169.195 28.6109L169.054 28.9804L169.012 29.0913L168.942 29.3706L168.921 29.4677L168.877 30.054L168.696 30.4531L168.443 30.9166L168.499 31.193L168.544 31.4485L168.482 31.5723L168.466 31.6802L168.429 31.9259L168.35 32.02L168.12 32.1735L167.982 32.3587L168.011 32.639L167.941 32.8816L167.836 33.0956L167.726 33.2352L167.567 33.3243L167.462 33.3996L167.383 33.671L167.359 33.881L167.285 34.09L167.331 34.3029L167.251 34.4871L167.025 34.6159L166.897 34.6921L166.779 34.7228L166.553 34.9229L166.351 35.6073L166.306 36.0044L166.352 36.357L166.069 36.5779L165.859 36.7532L165.727 36.6898L165.588 36.6304L165.267 36.5541L165.106 36.5026L164.783 36.3877L164.266 36.2421L163.761 36.0728L163.444 35.9836L163.195 35.9123L163.006 35.7954L162.846 35.5865L162.688 35.6707L162.541 35.9183L162.296 36.0648L162.186 36.3352L162.087 36.5422L161.834 36.8186L161.721 36.9324L161.225 37.1196L161.113 37.1821L160.708 37.2216L160.57 37.3039L160.428 37.4782L160.389 37.6515L160.49 37.8337L160.647 38.1982L160.721 38.4468L160.828 38.939L161.187 40.4772L161.071 40.7416L160.963 41.8875L160.989 42.0935L160.978 42.4144L160.985 42.6492L161.059 42.7076L161.156 42.7898L161.206 42.9265L161.193 43.1364L161.144 43.29L161.067 43.594L160.966 44.0328L160.854 44.2012L160.781 44.3349L160.719 44.427L160.711 44.737L160.669 44.941L160.494 45.0133L160.32 45.1321L160.113 45.0886L159.93 45.1123L159.706 45.1916L159.302 45.2837L159.069 45.4065L158.957 45.4956L158.879 45.6026L158.866 45.7056L158.919 45.7601L159.146 45.8017L159.301 45.9938L159.323 46.2038L159.163 46.3236L159.084 46.1919L158.95 46.1503L158.701 45.9651L158.519 45.7611L158.383 45.5352L158.389 45.0529L158.366 44.9806L158.119 44.8816L158.046 44.737L157.928 44.6686L157.76 44.7122L157.635 44.6666L157.535 44.5874L157.416 44.5785L157.313 44.7033L157.257 44.9717L157.084 45.4164L157.068 45.6848L156.994 46.0671L156.919 46.5514L156.857 46.6524L156.664 46.6673L156.598 46.699L156.496 46.8634L156.374 46.8911L156.266 46.7951L156.096 46.699L155.935 46.6861L155.79 46.7822L155.62 46.9912L155.523 47.1595L155.488 47.318L155.462 47.5131L155.289 47.6993L155.133 47.7974L154.809 48.0717L154.706 48.1856L154.474 48.1866L154.222 48.1757L153.881 48.25L153.326 48.2876L152.994 48.2312L152.584 48.2837L152.265 48.3728L152.219 48.5065L152.231 48.7046L152.294 48.8333L152.372 48.9195L152.505 49.1849L152.645 49.4415L152.856 49.6069L152.944 49.7851L152.948 49.9505L152.848 50.1585L152.696 50.4299L152.555 50.5973L152.449 50.5913L152.286 50.4943L152.176 50.3715L151.914 50.3259L151.272 50.4041L150.951 50.3497L150.798 50.2497L150.529 50.2427L150.114 50.109L149.861 50.0664L149.741 49.9813L149.718 49.7851L149.599 49.6504L149.532 49.489L149.381 49.2859L149.237 49.1839L149.094 49.1414L148.939 49.2642L148.772 49.3751L148.648 49.3503L148.588 49.381L148.521 49.4732L148.253 49.6613L148.191 49.8337L148.085 50.1991L148.011 50.5745L147.947 50.7072L147.839 50.73L147.729 50.8429L147.499 51.1945L147.29 51.5184L146.987 51.7372L146.843 51.9373L146.77 52.1196L146.554 52.3741L146.237 52.4196L145.984 52.4939L145.83 52.5137L145.719 52.6167L145.638 52.7732L145.599 52.8356H145.455L145.313 52.9683L144.963 53.2704L144.678 53.3269L144.321 53.5279L144.007 53.6805L143.877 53.7666L143.842 53.8617L143.796 53.9825L143.645 54.0063L143.498 54.0004L143.171 54.2767L143.006 54.5114L142.363 55.0106L142.101 55.2909L142.033 55.6534L142 55.6266L141.771 55.9426L141.321 56.2427L140.361 56.31L140.057 56.0971L139.947 56.2437L139.861 56.4407L139.609 56.5061L139.216 56.524L138.995 56.6537L138.877 56.7983L138.337 56.8449L138.139 57.038L137.802 57.1063L136.399 57.9482L136.093 58.3018L135.803 58.7148L135.6 58.9217L135.417 59.0663L135.252 59.1258L135.09 59.2684L134.925 59.2862L134.758 59.2209L134.571 59.2436L134.447 59.416L134.551 59.6408L134.493 59.7359L134.125 59.8577L133.576 59.9379L133.344 60.0845L133.263 60.1677L133.142 60.2093L133.026 59.9201L132.984 59.5378L133.211 59.4457L133.42 59.3972L134.578 58.8683L134.433 58.4701L134.536 58.2968L134.795 58.0145L134.964 57.8749L134.873 57.8234L134.113 57.9165L133.678 57.9095L133.454 57.8808L133.522 57.6392L133.484 57.3975L133.432 57.3074L133.819 57.032L133.994 56.9647L134.128 56.9687L134.118 56.8023L134.007 56.5517L134.127 56.2278L134.915 55.8465L135.104 55.4999L135.42 55.176L135.999 54.3698L136.034 54.2321L136.202 53.8528L136.232 53.7013L135.964 53.4794L135.858 53.1684L135.076 52.6059L135.009 52.1215L134.936 52.1423L134.817 52.4811L134.715 52.59L134.353 52.5999L134.181 52.4721L133.173 52.389L132.927 52.6078L132.697 52.9456L132.472 53.1872L132.246 53.311L132.05 53.5309L131.24 54.8323L130.934 54.9314L129.493 55.7148L128.771 56.0218L128.215 56.5626L128.024 56.8894L127.855 57.2519L127.752 57.7996L127.239 58.4642L127.062 58.6068L126.883 58.6643L126.644 58.6434L126.438 58.6851L126.088 58.6266L125.658 58.8366L125.174 59.0178L124.758 58.5613L124.459 58.4483L123.973 58.5751L123.747 58.7781L123.28 59.7814L123.105 60.3549L123.116 60.5896L123.389 61.3007L123.697 61.6979L124.387 62.1505L125.855 62.4615L126.2 62.3506L126.569 62.3496L126.958 62.6447L127.202 63.132L127.224 63.4638L127.232 63.5787L127.321 63.6768L127.373 63.8441L127.219 63.9828L127.1 64.0521L127 64.5662L126.994 65.1337L127.12 65.3218L127.436 65.5863L127.924 65.8042L128.376 65.8507L129.238 65.7458L129.591 65.4041L129.57 65.2565L129.579 65.0653L130.339 64.5632L130.771 64.1175L130.704 63.9996L130.621 63.9214L130.697 63.8758L130.934 63.8441L131.99 63.3786L132.821 63.759L133.295 64.1967L133.764 64.27L134.089 64.4939L134.465 64.684L134.954 64.6969L135.367 64.7365L135.493 64.5602L135.622 64.4444L135.769 64.4671L135.934 64.6979L136.404 64.8752L136.837 64.8663L137.14 64.8019L137.32 64.8841L137.06 65.1792L137.098 65.6546L136.899 65.8052L136.708 66.0468L136.821 66.2063L136.921 66.2736L136.911 66.4668L136.737 66.5767L136.414 66.8639L136.228 66.859L136.139 66.8035L136.077 66.7005L136.03 66.5351L135.918 66.4262L135.605 66.3846L135.28 66.4242L134.549 66.8501L133.835 67.1888L133.087 67.4572L132.836 67.6265L132.658 67.6731L132.348 67.5453L132.161 67.5533L132.121 67.6414L132.36 67.8772L132.422 68.0613L132.398 68.203L132.262 68.2654L132.065 68.1624L131.885 68.3099L131.803 68.5585L131.799 69.1498L131.681 69.2816L131.351 69.3539L131 69.542L130.875 69.4549L130.826 69.3489L130.863 69.0775L130.819 68.9448L130.659 68.9517L130.417 69.033L130.233 69.2112L130.169 69.3192L130.412 69.6668L130.643 69.7025L130.699 69.7807L130.516 69.9501L130.059 70.2017L129.983 70.4126L129.847 70.6146L129.661 70.7751L129.534 70.9445L129.38 71.0326L129.127 71.1317L128.817 71.5358L128.59 71.9131L128.321 72.1072L128.108 72.7431L127.727 73.0877L127.586 73.6384L127.685 73.9761L128.104 73.9732L128.313 74.092L128.747 74.5357L129.266 74.8249L129.805 74.9874L130.465 75.3964L130.648 75.5697L130.803 75.9213L131.089 76.9316L131.295 77.4307L131.309 77.6912L131.618 78.1815L131.948 79.0233L132.328 79.7503L132.401 80.3217L132.278 80.5822L132.279 80.92L132.658 81.23L133.502 81.5895L133.637 81.6955L133.802 81.8698L133.81 82.4116L133.941 82.5839L134.051 82.6889L134.562 82.9176L134.776 83.1078L135.002 83.4109L135.068 83.6823L135.096 84.0497L134.81 84.0626L134.581 84.021L133.666 83.5436L133.429 83.5307L133.093 83.5971L132.615 83.5089L132.109 82.9791L131.745 82.8186L131.354 82.7374L130.421 83.193L130.183 83.1603L130.115 83.2118L130.01 83.29L130.443 83.3881L130.876 83.2385L131.292 83.0177L131.899 83.1355L132.001 83.3346L132.102 83.6704L132.517 83.8972L132.844 83.9972L133.26 84.2943L133.666 84.7578L134.527 85.2947L134.876 85.8018L135.01 86.1286L135.131 86.5951L134.83 86.7456L134.568 86.7664L134.157 86.8397L133.855 87.0051L133.551 87.2943L132.683 87.7489L132.519 88.0332L132.406 88.2808L132.194 88.4026L131.662 88.2867L131.161 88.2966L130.593 88.6304L130.451 88.7661L130.546 88.7393L130.635 88.6968L130.89 88.7473L131.285 88.569L131.672 89.1127L132.425 89.0246L133.134 88.573L133.408 88.565L133.637 88.6343L133.893 88.8126L134.575 89.604L134.949 89.6901L135.315 89.8754L135.518 89.8962L135.702 89.9516L135.208 90.2408L134.572 90.8648L134.288 91.0133L134.098 91.1797L134.611 91.0966L134.976 90.7984L135.16 90.7251L135.308 90.7945L135.383 91.1619L135.242 92.289L135.063 92.3088L134.889 92.0028L134.685 91.9057L134.513 91.9691L134.173 91.9671L134.044 92.1058L133.935 92.3019L134.138 92.3425L134.538 92.6842L134.579 92.8654L134.472 92.9833L134.191 92.9328L134.532 93.1873L134.442 93.4508L134.332 93.5548L134.134 93.6211L134.012 93.8489L134.187 94.2282L134.365 94.7135L134.386 94.9473L134.109 94.8463L133.676 95.1424L133.448 95.1672L133.294 94.7769L133.097 94.8383L132.965 94.9513L132.79 95.3692L132.576 95.7466L132.392 95.8496L132.171 95.8198L131.989 95.8308L132.033 95.9328L132.225 96.0566V96.2012L131.815 96.6597L131.749 96.837L131.759 96.9876L131.544 97.1708L131.66 97.4788L131.599 97.6957L131.411 97.9889L131.213 98.182L130.98 98.495L130.685 98.6762L130.296 99.3309L130.181 99.6577L130.152 99.9955L130.031 100.112L129.822 100.259L129.584 100.185L129.576 99.9598L129.473 99.94L129.414 99.7924L129.397 99.6052L129.421 99.4537L129.322 99.5003L129.261 99.6756L129.105 99.8182L128.941 99.7607L128.765 99.6439L128.77 99.8122L128.864 99.9816L128.904 100.151L129.148 100.188L129.311 100.382L129.44 100.68L129.466 100.792L129.566 100.924L129.58 101.038L129.347 101.143L129.056 101.339L128.706 101.675L128.418 101.899L128.158 101.901L128 101.875L127.775 101.747L127.517 101.693L127.864 102.146L128.053 102.226L128.29 102.209L128.521 102.041L128.849 102.059L128.931 102.319L128.844 102.613L128.665 102.994L128.628 103.324L128.85 103.796L128.86 103.937L128.777 104.008L128.516 103.884L128.301 103.727L128.084 103.769L127.86 103.703L127.629 103.758L127.535 103.867L127.598 104.046L127.805 104.195L127.921 104.424L127.782 104.504L127.195 104.45L127.064 104.494L126.889 104.746L127.003 105.118L126.873 105.349L126.631 105.403L126.314 105.589L126.117 105.633L126.127 105.714L126.271 105.795L126.347 105.905L126.174 106.285L125.905 106.409L125.493 106.347L125.17 106.432L124.889 106.271L124.59 106.268L124.387 106.472L124.365 106.709L124.168 106.732L124.062 106.714L123.913 106.731L123.929 106.858L124.014 106.969L124.418 107.019L124.49 107.178L124.506 107.424L124.083 107.847L123.903 108.132L123.631 108.124L123.426 108.353L123.316 108.663L123.181 108.601L122.867 108.651L122.775 108.798L122.848 108.86L122.855 108.966L122.729 109.313L122.592 109.411L122.533 109.269L122.489 109.048L122.379 109.031L122.195 109.234L121.981 109.38L121.798 109.44L121.66 109.305L121.32 109.235L121.181 109.818L120.9 110.03L120.768 110.097L120.538 110.117L120.685 110.197L120.73 110.346L120.648 110.495L120.419 110.525L120.285 110.64L120.233 111.16L120.097 111.343L119.748 111.358L119.488 111.237L119.404 111.332L119.361 111.425L119.224 111.519L118.961 111.544L118.375 111.776L118.107 111.709L117.787 111.621L117.566 111.707L117.493 111.885L117.391 112.024H117.07L116.812 111.853L116.55 111.729L116.26 111.836L116.039 112.054L115.768 112.127L115.717 112.263L115.599 112.33L115.312 112.301L115.203 111.965L115.038 111.915L114.874 112.086L114.816 112.218L114.739 112.319L114.766 112.594L114.605 112.6L114.394 112.431L114.172 112.401L113.965 112.558L113.86 112.519L113.749 112.487H113.568L113.498 112.528L113.366 112.553L113.277 112.638L113.269 112.645L113.035 112.588L112.749 112.36L112.544 111.982L112.283 111.777L112.168 111.598L112.124 111.276L112.076 111.123L112.092 110.952L112.171 110.801L111.891 110.877L111.684 111.019L111.727 111.197L111.675 111.363L111.366 111.449L111.385 111.518L111.406 111.591L111.647 111.817L111.697 112.006L111.795 112.107L111.984 112.401L111.979 112.97L112.083 113.13L112.048 113.29L111.973 113.505L111.966 113.508L111.911 113.442L111.82 113.455L111.783 113.528L111.777 113.593L111.761 113.596L111.601 113.643L111.466 113.684L111.357 113.742L111.186 113.911L110.86 113.952L110.693 113.556L110.468 113.821L110.4 114.361L110.317 114.453L110.178 114.53L109.913 114.342L109.682 114.467L109.502 114.595L109.428 114.713L109.295 114.841L109.041 114.717L108.836 114.532L108.887 114.392L108.858 114.301L108.766 114.232L108.664 114.242L108.715 114.423L108.748 114.77L108.655 114.87L108.512 114.947L108.202 114.883L107.991 114.755L107.734 114.646L107.508 114.626L107.459 114.845L107.312 115.021L107.177 115.043L107.041 115.015L106.863 115.205L106.778 115.344L106.559 115.491L105.974 115.562L105.77 115.706L105.497 115.684L105.285 115.718L105.163 115.71L105.054 115.632L104.931 115.63L104.875 115.872L104.544 115.974L104.247 116.002L103.916 116.321L103.68 116.514L103.505 116.533L103.376 116.465L103.312 116.18L103.247 116.146L103.209 116.415L103.147 116.637L103.026 116.759L102.643 117.037L102.534 117.312L102.607 117.566L103.121 117.629L103.184 117.769L103.135 117.882L103.012 117.978L102.975 118.12L103.527 118.574L103.544 118.745L103.459 118.843L103.356 119.054L103.064 119.232L102.448 119.324L101.934 119.231L101.779 119.028L101.789 118.884L101.916 118.925L102.061 118.912L102.018 118.78L101.956 118.703L101.719 118.585L101.527 118.267L101.564 118.002L101.46 117.797L101.345 117.626L101.23 117.523L101.168 117.395L101.285 116.993L101.22 116.759L101.44 116.472L101.495 116.148L101.887 116.032L101.914 115.723L101.632 115.714L101.437 115.488L101.393 115.584L101.236 115.594L100.979 115.156L100.901 115.1L100.777 115.092L100.839 115.554L100.537 115.727L100.289 115.804L99.9386 115.835L99.7386 115.889L99.5523 115.845L99.5979 115.706L99.6969 115.539L99.6088 115.399L99.4107 115.293L99.1077 115.298L98.8987 115.269L98.6907 115.281L98.6145 115.218L98.4213 114.999L98.2579 114.864L98.1846 114.728L98.2579 114.57L98.1965 114.474L97.8805 114.464L97.8825 114.689L97.9152 114.956L98.0073 115.158L97.9419 115.271L97.7815 115.348L97.6101 115.134L97.5319 115.082L97.4497 115.091L97.3873 115.304L97.2318 115.494L96.9525 115.473L96.7346 115.59L96.4712 115.643L96.2919 115.487L95.9957 115.235L95.8779 115.206L95.5491 115.329L95.0767 115.375L94.9716 115.244L94.7439 115.343L94.524 115.041L94.2635 115.021L93.9387 114.792L93.8218 114.671L93.7851 114.496L93.6861 114.405L93.5593 114.417L93.4177 114.324L93.1939 114.232L93.0136 114.177L92.9245 114.219L92.8304 114.241L92.8136 114.124L92.8205 113.771L92.8037 113.458L92.7542 113.317L92.6333 113.21L92.5243 113.158L92.4758 112.997L92.5154 112.68L92.6046 112.465L92.7452 112.426L92.9354 112.272L93.0324 112.052L93.1543 111.848L92.7205 111.562L92.4926 111.459L92.2401 111.502L91.9262 111.593L91.7627 111.611L91.6805 111.575L91.4973 111.318L91.3982 111.273L91.1764 111.257L90.9892 111.259L90.8822 111.37L90.7158 111.408L90.5495 111.414L90.3811 111.274L90.1275 111.092L89.7304 110.963L89.6818 110.816L89.5808 110.639L89.4303 110.474L89.1807 110.256L88.9717 110.143L88.8697 110.213L88.731 110.336L88.1943 110.597L87.9565 110.699L87.8297 110.771L87.7238 110.88L87.6911 111.149L87.6386 111.448L87.4841 111.599L87.3375 111.714L87.184 111.726L87.0335 111.721L86.8918 111.769L86.46 112.069L86.257 112.045L86.0896 111.876L86.0183 111.753L85.8251 111.78L85.5775 111.924L85.4627 112.182L85.4022 112.422L85.3478 112.529L85.2646 112.56L85.1913 112.565L84.4197 111.871L84.3722 111.835L84.2335 111.978L84.1077 112.346L84.0176 112.416L83.9562 112.388L83.6373 111.916L83.5551 111.872L83.4828 111.887L83.3867 112.04L83.1847 112.265L83.0302 112.401L83.0262 112.553L82.8579 112.687L82.6627 112.82L82.5974 112.834L82.4676 112.781L82.2983 112.604L82.1754 112.418L81.8714 112.234L81.5307 112.079L81.3049 111.957L81.1761 111.927L81.0563 111.982L80.9959 112.056L80.9107 112.24L80.7067 112.541L80.5244 112.781L80.355 112.934L80.2204 113.04L80.1193 112.941L79.9332 112.86H79.7143L79.426 113.013L79.1992 112.707L79.1398 112.693L79.0526 112.718L78.9516 112.791L78.8823 112.961L78.809 113.194L78.6644 113.346L78.5445 113.414L78.5792 113.544L78.6476 113.686L78.6426 113.81L78.6862 114.005L78.7614 114.2L79.0298 114.52L79.1329 114.686L79.1536 114.831L79.1636 115.344L79.1527 115.558L79.0992 115.97L79.0953 116.208L79.2071 116.315L79.3151 116.442L79.3102 116.512L79.2626 116.536L79.1091 116.678L79.0447 116.697L78.9437 116.638L78.813 116.595L78.709 116.538L78.5931 116.447L78.3188 116.457L77.8681 116.596L77.775 116.556L77.7106 116.478L77.675 116.316L77.6968 116.125L77.6571 116.004L77.573 115.931L77.6334 115.592L77.4729 115.457L77.4957 115.415L77.4422 115.048L77.4492 114.957L77.4214 114.926L77.3085 114.897L77.1402 114.955L76.6281 115.196L76.1884 115.643L75.9873 115.742L75.7843 115.783L75.5456 115.706L75.2811 115.655L74.9038 115.768L74.7176 115.715L74.6314 115.624L74.5552 115.486L74.6017 115.309L74.573 115.18L74.4224 115.114L74.2471 115.058L74.1432 114.888L74.1016 114.703L74.1421 114.463L74.163 114.204L74.0788 114.085L73.8222 114.021L73.1755 113.903L72.609 113.839L72.3713 113.869L72.1772 113.841L72.0652 113.793L72.0108 113.712L72.0078 113.595L72.0999 113.327L72.2039 113.064L72.4673 112.682L72.4832 112.416L72.4693 112.11L72.6001 111.701L72.8268 111.395L72.9388 111.299L72.9121 111.162L72.8209 111.038L72.6912 110.968L72.4763 110.888L72.1415 110.866L71.682 110.784L71.1501 110.602L71.2115 110.252L71.2026 110.033L71.1372 109.853L71.0293 109.725L70.9679 109.611L71.0639 109.298L70.9401 108.956L70.7946 108.819L70.644 108.642L70.6321 108.451L70.7004 108.272L71.0689 107.889L71.0718 107.796L70.9808 107.804L70.8757 107.812L70.3726 107.951L70.3182 107.863L70.1379 107.813L69.7704 107.803L69.3406 107.829L68.7969 107.965L68.2977 108.205L68.0709 108.369L67.8778 108.471L67.7213 108.505L67.54 108.433L67.5499 108.198L67.8906 107.767L67.9391 107.471L67.8362 107.217L67.8243 107.013L67.7044 106.883L67.5371 106.819L67.4479 106.675L67.442 106.251L67.5915 105.814L67.8342 105.677L67.9817 105.61L68.0213 105.525L67.9461 105.218L67.958 105.023L68.1026 104.645L68.2472 104.359L68.5205 104.407L68.6433 104.335L68.779 104.233L68.9266 104.061L69.0257 103.856L69.1465 103.381L69.2287 103.309L69.5733 103.389L69.6763 103.333L69.8645 103.054L70.0428 102.713L70.3013 102.608L70.4875 102.597L70.5737 102.484L70.5687 102.318L70.3914 102.054L70.3171 101.843L70.3389 101.714L70.5925 101.636L70.6549 101.482L70.6173 101.145L70.7212 100.74L70.7836 100.266L70.8044 99.9113L70.8015 99.6409L70.7767 99.3567L70.7411 98.8377L70.6252 98.385L70.646 98.2147L70.6301 97.665L70.5588 97.1955L70.4162 97.1133L70.1508 96.9608L70.0062 96.9311L69.8853 96.9866L69.8397 97.15L69.7229 97.3025L69.5793 97.2649L69.511 97.1123L69.4188 96.9123L69.1108 95.9605L69.0772 95.6861L69.0227 95.4128L68.9197 95.2761L68.8107 95.1949L68.5651 94.874L68.4363 94.7403L68.3739 94.7185L68.2393 94.7413H68.1065L67.9985 94.5808L67.8995 94.3847L67.8005 94.2887L67.6341 94.2352L67.4637 94.256L67.3637 94.4253L67.2964 94.5214L67.1676 94.7472L66.9596 95.0592L66.8646 95.1741L66.7724 95.1147L66.3713 94.7898L66.1782 94.6997L65.9148 94.7978L65.5037 94.7205L65.3453 94.7056L65.0026 94.4461L64.8629 94.4144L64.3766 94.5838L64.2697 94.7037L64.2073 94.7056L64.0775 94.6452L63.9715 94.565L63.9646 94.5145L64.0964 94.3877L64.1062 94.2986L64.0993 94.2085L64.2885 93.9529L64.8045 93.4577L64.7183 93.2497L64.5153 92.8397L64.4886 92.6406L64.4004 92.5505L64.1538 92.6238L63.6407 92.9962L63.5704 92.9556L63.5833 92.8268L63.5298 92.4514L63.6922 92.3385L63.9418 92.2009L64.1339 92.0473L64.1785 91.9235L64.126 91.8849L63.8428 91.9335L63.7309 91.8493L63.5456 91.5036L63.4099 91.3679L63.2872 91.2946L62.8692 91.4729L62.3839 91.7175L61.8431 92.0582L61.8461 92.2325L61.7817 92.2771L61.6787 92.387L61.5777 92.5386L61.4915 92.5921L61.3905 92.597L61.1845 92.5544L60.8111 92.3821L60.406 92.2395L60.3189 92.2553L59.7682 92.1543L59.7504 92.0731L59.6671 91.9136L59.5107 91.769L59.3611 91.7205L58.9303 92.0256L58.444 92.2524L58.1677 92.5208L57.9399 92.7872L57.6784 92.8387L57.6665 93.0031L57.5566 93.1507L57.3585 93.3329L56.9653 93.5647L56.6988 93.6895L55.853 93.8033L55.551 93.8806L55.4242 94.0024L55.2885 94.3114L55.1815 94.5957L54.9478 94.8304L54.5219 95.1434L54.0217 95.3969L53.8841 95.5653L53.8594 95.6653L53.9218 95.702L53.9832 95.7783V95.8931L53.9188 96.0179L53.5919 96.2358L53.4077 96.3398L53.2245 96.4062L53.0195 96.4181L52.8223 96.3884L52.7679 96.3527L52.6897 96.3983L52.5094 96.4438L52.3529 96.4587L52.0092 96.7003L51.8201 96.7023L51.5843 96.6498L51.2734 96.6082H51.0485L51.0416 96.4805L51.0762 96.0972L50.9743 96.008L50.6632 95.9139L50.3126 95.7891L50.1443 95.6564L50.0502 95.6119L49.9185 95.6337L49.7075 95.7733L49.5074 95.9377L49.349 95.9516L49.1866 95.8753L49.032 95.7743L48.5012 95.6327L48.2635 95.6119L47.8386 95.6356L47.4919 95.6059L47.4375 95.5623L47.4384 95.4831L47.49 95.3296L47.5197 95.178L47.4791 95.0919L47.1255 94.9859L46.8026 94.9096L46.4589 94.8809L46.2282 94.9344L46.0023 95.0533L45.8161 95.2672L45.5468 95.3603L45.2249 95.5197L45.0694 95.6683L44.8336 95.9872L44.4909 96.3784L44.18 96.7598L44.0185 97.1302L43.8046 97.3629L43.5877 97.5303L43.4312 97.9909L43.2678 97.8453L43.0806 97.6363L43.036 97.3501L43.2579 96.5894L43.3104 96.2725L43.2539 96.1516L43.1846 95.8396L43.0529 95.7367L42.6765 95.5732L42.5567 95.5683L42.4279 95.6812L42.3022 95.7525L42.1348 95.8238L41.7148 95.9575L41.3424 96.0199L41.2533 96.0695L41.2255 96.1586L41.2553 96.2645L41.0156 96.2239L40.765 96.2012L40.5629 96.216L40.0688 96.4181L39.9014 96.4379L39.7152 96.4171L39.4616 96.4111L38.9793 96.4171L38.5643 96.3656L38.2265 96.0833L37.9879 95.9585L37.7333 95.8624L37.4768 95.7901L37.3916 95.6386L37.3104 95.5623L37.0994 95.5376L36.9321 95.593L36.8281 95.9744L36.739 96.0496L36.527 96.0833L36.3041 95.9862L35.9961 95.7901L35.8753 95.5722L35.7723 95.5019L35.6099 95.598L35.6009 95.8773L35.5692 96.0645L35.3761 96.1407L35.2642 96.0853L35.1741 95.8931L34.9473 95.4366L34.7225 95.1692L34.4956 94.9909L33.7519 94.9958L33.2002 94.9433L32.9506 94.87L32.8565 94.6937L32.9476 94.3412L33.0546 94.0658L33.0516 94.0014L32.9605 93.9688L32.802 93.947L32.2068 94.1233L32.0444 94.1025L31.9414 94.0421L31.8156 93.9906L31.7115 93.9083L31.6392 93.7885L31.1243 93.4944L30.9727 93.3329L30.6984 93.1309L30.4666 92.9932L30.32 92.599L30.1863 92.2197L30.1131 92.0176L29.8922 91.9107L29.6535 91.8295L29.2494 91.9949L28.9176 92.1206L28.674 92.1335L28.3223 91.7443L28.0401 91.3233L27.7063 90.9559L27.4845 90.7707L27.0913 90.7529L26.6485 90.5459L26.0543 90.0744L25.6255 89.7228L24.8866 89.3316L24.7143 89.1672L24.6489 89.0275L24.5479 88.7522L24.3934 88.4907L23.8694 88.3769L23.2771 88.2956L22.6522 88.4561L22.2026 89.2385L21.9857 89.4089L21.7994 89.4188L21.6469 89.2197L21.5212 89.0107L21.4528 88.7789L21.1418 88.6076L20.7902 88.3838L20.6099 88.2095L20.4069 88.1005L20.2177 88.054L19.8533 87.9064L19.4403 87.74L19.2461 87.7172L19.2323 87.5984L19.2907 87.3458L19.2551 87.1032L19.1303 87.0041L18.9421 87.0299L18.5063 86.6852L18.4845 86.6674L18.3607 86.5693L18.1458 86.4287L17.7833 86.4386L17.509 86.4901L17.3079 86.3465L17.0167 86.1187L16.9642 86.0682L16.878 85.985L16.5829 85.5452L16.2343 85.0243L16.058 84.948L15.9669 84.9876L15.8639 85.264L15.7866 85.2362L15.6569 85.2551L15.5044 85.3521L15.3578 85.3769L15.2636 85.3481L15.224 85.2798L15.2656 84.9144L15.1765 84.8004L15.2557 84.5459L15.3894 84.326L15.2528 84.1626L15.0844 83.9289L15.0656 83.7169L15.1567 83.4495L15.2013 83.2207L15.1735 83.1365L15.0408 83.0088L14.5347 82.3789L14.508 82.3125L14.4228 82.1025L14.3832 81.7856L14.3178 81.5588L14.2406 81.3845L14.2465 81.3023L14.305 81.2597L14.6209 81.2171L14.913 81.1904L15.1052 81.1309L15.2052 81.2577L15.2518 81.4518L15.3023 81.5538L15.4875 81.7381L15.7133 81.9143L15.9322 81.8916L16.1253 81.8163L16.2927 81.5291L16.4106 81.4588L16.5482 81.4459V81.4251L16.5403 81.2399L16.5888 80.7833L16.572 80.6001L16.5096 80.4347L16.5205 80.2505L16.4997 79.983L16.3423 79.7998L16.2393 79.7295L16.2224 79.6304L16.2759 79.4472L16.3125 79.2363L16.2581 79.0808L16.2491 79.057L16.1214 78.9768L15.9718 78.8411L15.7936 78.6579L15.7054 78.5251L15.5608 78.3786L15.3845 78.1508L15.3518 77.6506L15.334 77.1237L15.2726 76.8612L15.1745 76.4423L15.1894 76.3016L15.2488 76.1947L15.746 75.856L15.8539 75.7242L15.8718 75.6242L15.852 75.4756L15.7579 75.3102L15.5598 75.1815L15.2765 74.9715L15.02 74.7526L14.5882 74.6189L14.0642 74.4555L13.9385 74.2961L13.8117 73.9058L13.5958 73.3096L13.366 72.6727L13.1887 72.2795L13.1798 72.0904L13.2858 71.6071L13.2729 71.5041L13.1798 71.4684L13.0026 71.5318L12.8609 71.6081L12.7401 71.5684L12.6282 71.4872L12.6054 71.4595L12.5964 71.4486L12.3865 71.5011L11.9656 71.5308L11.82 71.5258L11.6159 71.5189L11.1941 71.408L10.6246 71.2584L10.0372 71.0504L9.7262 70.885L9.61727 70.8276L9.35086 70.6553L9.16172 70.5067L9.12804 70.1175L8.99034 70.1472L8.66747 70.2878L8.2951 70.377L8.08908 70.378L8.00584 70.3155L7.88204 69.9045L7.79197 69.7887L7.62458 69.7431L7.44232 69.6708L7.3502 69.5638L7.3294 69.4281L7.41065 69.2726L7.5067 69.1528L7.52351 68.4199L7.46112 68.1594L7.40865 67.9405L7.27494 67.6682L7.15017 67.4998L6.96198 67.3433L6.66977 67.1809L6.40929 67.1205L6.09434 67.2393L5.99435 67.1938L5.86257 66.6906L5.77843 66.5876L5.21884 66.3806L4.96531 66.3331L4.67309 66.3974L4.50673 66.4529L4.37301 66.3608L4.16404 66.2439L3.95899 66.1637L3.70449 66.1608L3.54007 66.2103L3.49848 66.1815L3.41923 66.0894L3.08052 65.8111L3.06861 65.7408L3.58758 65.4664L3.89364 65.3625L4.05408 65.2793L4.08775 65.2971L4.167 65.4239L4.36902 65.5071L4.51169 65.4843L4.58598 65.4209L4.83751 65.2693L5.03362 65.0931L5.14357 64.9485L5.08415 64.7207L4.77513 64.4444L4.57903 64.2968L4.51858 64.1967L4.56911 63.8966L4.64045 63.5985L4.59287 63.4846L4.53448 63.3876L4.50872 63.0617L4.37398 62.6675L4.22739 62.4378L4.18683 62.1268L4.17891 61.8356L4.35615 61.378L4.2908 61.1799L4.10461 61.0036L3.46281 60.6847L2.80517 60.4738L2.5546 60.4817L2.39912 60.4688L2.21487 60.655L2.10497 60.8986L1.95143 60.9204L1.67112 60.8174L1.48397 60.6609L1.35122 60.3351L1.24821 59.9152L1.18981 59.7834L1.2195 59.6695L1.28387 59.5685L1.46317 59.4734L1.49285 59.3764L1.46613 59.2565L1.32154 59.105L1.17398 58.891L0.943176 58.4464L0.987728 58.2007L1.02442 57.8472L1.01052 57.661L1.24428 57.6124L1.54236 57.5164L1.68103 57.3569L1.77709 57.1945L1.79795 57.0935L1.70781 56.7042L1.58897 56.5309L1.57706 56.3962L1.63552 56.2932L1.71374 56.1159L1.86426 55.7514L2.01085 55.5187L2.09107 55.4602L2.27037 55.4058L2.70809 55.3414L3.17857 55.178L3.73713 54.6887L3.92338 54.5491L4.167 54.4787L4.34134 54.4837L4.37301 54.4243L4.26009 54.1202L4.28784 54.0103L4.35421 53.9241L4.43836 53.8845L4.82561 54.0449L5.12175 54.0281L5.48228 53.933L6.25973 53.3962L6.35681 53.4041L6.43504 53.4764L6.52916 53.8003L6.6361 54.4817L6.69552 54.5669L7.23631 54.5758L7.60475 54.3282L7.76622 54.2698L8.02767 54.3103L8.16634 54.1945L8.31094 54.1133L8.47832 54.3985L8.69419 54.2618L8.92699 54.0449L9.04087 53.8201L9.19835 53.5774L9.32112 53.2694L9.37069 52.9783L9.43108 52.8416L9.56184 52.7009L9.88373 52.0997L10.1154 51.9462L10.3354 51.8918L10.8791 51.9958L11.1614 51.9829L11.9893 52.0621L12.3716 51.9462L12.6391 51.8313L13.0313 51.8492L13.4958 51.758L14.1148 51.0004L14.1227 50.839L14.1604 50.6676L14.3841 50.4982L14.6625 50.3427L15.2171 49.9713L16.3452 49.382L16.7493 49.1453L16.9177 49.1513L17.3336 49.0027L18.0626 48.7135L18.2686 48.353L18.4607 48.2807L19.3125 48.2163L19.366 48.1747L19.3957 48.1133L19.3482 47.8518L19.2927 47.627L19.359 47.5607L19.4304 47.4577L19.4195 47.3131L19.2818 46.8436L19.2085 46.3979L19.16 45.9948L19.1689 45.8443L19.2719 45.5838L19.4056 45.3471L19.8879 45.1262L20.2078 45.0598L20.2207 44.9152L19.9622 44.8251L19.7751 44.6805L19.7424 44.5983L19.7512 44.5042L19.7948 44.4181L20.1197 44.2556L20.4257 44.0942L20.7991 44.1922L20.8724 44.1298L20.8942 43.9684L20.814 43.806L20.7387 43.5395L20.5664 43.4029L20.5595 43.2395L20.6654 42.9572L20.5188 42.4342L20.3594 41.9717L20.089 41.1774L19.9097 40.9476L19.8097 40.5802L19.6978 40.387L19.7077 40.1008L19.7265 39.8997L19.6978 39.5006L19.6453 39.0668L19.6978 38.6261L19.7988 38.3349L19.772 38.223L19.8255 38.1398L19.9781 38.112L20.0504 37.9922L19.9781 37.8694L19.7146 37.7743L19.4205 37.6268L19.0669 37.6436L18.7044 37.6693L18.5231 37.5604L18.3647 37.4207L18.3557 37.3316L18.5737 37.0959L18.8767 36.8512L19.3472 36.7433L19.8651 36.5818L20.1276 36.465L20.4773 36.3808L20.8813 36.3451L21.0844 36.3689L21.6043 36.2124L22.4224 35.9094L23.1652 35.6548L23.4148 35.5033L23.601 35.6548L23.6872 35.9886L23.9041 36.1609L24.119 36.2441L24.2428 36.2401L24.6132 36.1104L25.0134 36.0153L25.1709 36.0668L25.3739 36.2372L25.6017 36.3897L25.7205 36.3828L25.8245 36.2649L25.9295 36.0272L25.9958 35.7241L26.0097 35.4032L25.9701 35.2071L25.8899 35.1348L25.5254 35.019L25.1778 34.8298L25.1382 34.6565L25.1461 34.5327L25.2382 34.2296L25.465 33.672L25.6928 32.9005L25.8136 32.2894L26.195 31.3752L26.495 30.4185L26.9803 29.0358L27.0616 28.7615L27.1061 28.3227L27.1319 28.1415L27.3013 28.0464L27.5865 28.1395L28.2827 28.4565L28.8126 28.7229L29.0345 28.813L29.3643 28.9071L29.8743 29.018L30.1695 28.9853L30.428 28.92L30.7726 28.914L31.3105 28.9962L31.4768 28.9992L31.6839 29.0101L31.8304 29.1448L31.9037 29.4488L32.0146 29.5855L32.2157 29.535L32.6436 29.2666L32.9169 29.0556L33.2586 28.7496L33.5974 28.708L33.9569 28.6397L34.0816 28.4881L34.2144 28.1316L34.4352 27.8622L34.4719 27.5195L34.3946 27.2779L34.2411 26.8837L34.246 26.6172L34.1718 25.8437L34.0727 25.1455L34.1737 24.5819L34.352 23.95L34.4214 23.7559L34.5343 23.5014L34.6937 23.1953L34.9176 23.0993L35.5465 23.0339L36.1288 22.9051L36.4259 22.7724L36.735 22.6922L36.9192 22.5951L37.2361 22.1465L37.3867 21.888L37.4976 21.2006L37.4164 20.8698L37.4837 20.5766L37.6373 20.4043L37.8532 20.231L37.9978 20.2013L38.3058 20.1488L38.8109 20.1666L39.0684 20.2508L39.3299 20.2904L39.4953 20.228L39.6052 20.0963L39.7746 20.0547L40.0291 19.9913L40.2916 19.9121L40.4362 19.927L40.4659 20.1221L40.4421 20.2746L40.4926 20.4786L40.5966 20.6133L40.5629 20.7589L40.4163 20.8431L40.2717 20.957L40.2401 21.1125L40.4233 21.3056L40.4857 21.4908L40.7927 21.6017L41.0314 21.7265L41.1205 21.8464L41.0938 21.9811L40.9839 22.1257L40.8779 22.2812L40.864 22.3743L40.8977 22.4832L41.1275 22.5555L41.3939 22.6754L41.8158 22.8299L42.105 23.1171L42.3923 23.1963L42.5309 23.4756L42.5557 23.8807L42.8498 24.0867L43.2847 24.3729L43.5055 24.4254L43.653 24.5879L43.866 24.784L44.0552 24.8454L44.28 24.8741L44.6504 24.6918L45.0664 24.674L45.2932 24.778L45.5091 25.1702L45.6616 25.294L45.7518 25.404L45.8974 25.509L46.0449 25.5248L46.2648 25.4376L46.3985 25.2643L46.5906 25.3L46.6629 25.4129L46.6986 25.606L46.8006 25.8457L47.0443 26.024L47.3849 26.13L47.4325 26.2171L47.48 26.4558L47.5722 26.6212L47.696 26.8371L47.8138 27.2303L47.8386 27.5552L47.893 27.7334L48.0505 28.0236L48.3021 28.4871L48.5021 28.8794L48.7339 28.9556L48.931 29.0794L49.0439 29.3686L49.2529 29.9124L49.2866 30.2669L49.3044 30.5314L49.3727 30.6512L49.3876 30.8008L49.2133 31.3683L49.0657 31.6238L49.0469 31.8387L49.1469 32.2121L49.2846 32.5013L49.2984 32.7776L49.1816 32.9797L48.9805 33.2323L48.8835 33.3768L48.727 33.5036L48.4873 33.9909L48.3794 34.5287L48.3546 34.805L48.4457 35.0051L48.5982 35.225L48.6358 35.4151L48.8864 35.84L48.9528 36.1025L49.0558 36.1114L49.1658 36.0252L49.4342 36.0193L49.6778 36.1124L49.9115 36.3065L50.1621 36.4095L50.5206 36.3838L50.7118 36.4877L50.9178 36.5729L51.3447 36.6026L51.6646 36.6017L52.1558 36.6046L52.553 36.7354L53.2512 36.8384L53.683 36.8304L54.2634 36.7334L54.619 36.7948L55.6718 36.9394L56.2878 37.0909L56.6781 37.2613L56.9524 37.5307L57.2664 37.9506L57.516 38.1428L58.1865 38.2586L58.647 38.7479L59.0065 38.9301L59.6117 39.4026L60.0396 39.5868L60.5516 39.7561L61.3865 39.6839L61.4331 39.7472L61.3687 40.0028L61.3182 40.3524V40.6049L61.4044 40.7337L61.7232 40.81L61.8738 40.9338L61.9887 41.1714L62.0551 41.319L62.3235 42.046L62.7533 43.1166L62.8028 43.5277L62.9494 43.7921L63.4159 44.211L63.6606 44.5211L64.025 44.8459L64.1448 45.146L64.1716 45.5332L64.2637 45.6333L64.9303 45.5442L65.5077 45.4818L66.5436 45.3708L67.9698 45.5729L69.4407 45.768L70.7411 45.9403L71.3818 46.0245L72.8299 46.2058L73.6351 45.975L74.264 45.7947L74.5492 45.8195L75.7516 46.0225L76.4568 46.1315L77.3442 46.2681L77.9602 46.3186L78.4654 46.3157L78.6981 46.3731L78.9229 46.4613L79.0725 46.59L79.534 47.2398L79.7925 47.526L80.3046 47.7419L81.4673 47.9885L82.1111 48.1381L82.85 48.3094L83.3372 48.5679L83.8978 48.868L84.6237 49.2562L85.4191 49.0869L86.2748 48.9037L86.8116 48.7888V49.5989L87.5772 49.6633L87.8169 49.6544L88.1556 49.8327L88.3457 49.7574L88.527 49.5821L88.7538 49.3048L89.0797 49.183L89.6432 48.872L89.7809 48.7967L90.6178 48.354L91.8677 47.8073L92.4283 47.5418L92.5956 47.4824L92.9126 47.3467L93.1265 47.2526L93.5049 47.1773L94.0179 47.1298L94.5785 47.0268L95.8462 46.8327L96.0057 46.8149L96.7178 46.7346L97.0209 46.6594L97.4734 46.699L98.0648 46.7267L98.457 46.7762L98.9769 46.7376L99.692 46.6851L100.27 46.6931L100.558 46.6277L100.982 46.4227L101.266 46.2602L101.712 46.0631L102.267 45.8581L102.653 45.6719L102.909 45.5481L103.219 45.4312L103.3 45.2807L103.389 45.1648L103.554 44.9717L103.85 44.6112L104.076 44.2952L104.187 44.1546L104.44 43.8386L104.645 43.6L104.907 43.2781L105.126 43.1741L105.406 43.0859L106.14 42.77L106.285 42.7017L106.407 42.6878L106.667 42.4323L106.886 42.2104L107.03 42.045L107.328 41.9846L107.481 41.8648L107.507 41.7082L107.477 41.4686L107.333 41.2229L107.212 41.008L106.786 40.598L106.561 40.3435L106.331 40.0156L106.237 39.7076L106.079 39.5115L106.004 39.3372L106.028 39.1361L106.247 38.7776L106.316 38.5508L106.407 38.1497L106.612 37.5485L106.779 37.2662L106.973 36.9909L107.382 36.6205L107.756 36.5521L107.979 36.6254H108.477L108.809 36.6452L109.053 36.8304L109.324 37.1959L109.63 37.3296L110.583 37.6158L110.99 37.6763L111.281 37.6891L111.712 37.7832L111.856 37.804L112.077 37.8684L112.259 37.7991L112.536 37.5544L112.883 37.2801L113.033 37.2167L113.309 37.0978L113.448 36.986L113.691 36.6769L114.006 36.4372L114.39 36.0767L114.579 35.8054L114.621 35.63L114.662 35.4399L114.781 35.3399L115.015 35.2478L115.278 35.223L115.779 35.3864L116.457 35.3399L116.608 35.3161L117.225 35.222L117.504 35.1447L117.896 35.0705L118.197 34.7674L118.6 34.4059L118.893 34.2048L119.088 34.1662L119.332 33.9572L119.452 33.7324L119.42 33.5343L119.375 33.3709L119.518 33.0669L119.778 32.534L120.019 32.2854L120.219 32.0844L120.347 31.7605L120.505 31.6674L120.698 31.6317L120.97 31.4118L121.17 31.3673L121.503 31.4723L121.995 31.499L122.309 31.5099L122.489 31.4703L122.554 31.3524L122.552 31.1702L122.652 30.7641L122.69 30.6304L122.78 30.568L123.083 30.5601L123.287 30.7057L123.427 30.8265L123.623 30.8424L123.824 30.7631L124.092 30.4343L124.54 30.2432L124.777 30.1946L125.199 30.0391L125.466 30.0956L125.955 30.1411L126.144 30.1015L126.35 30.1411L126.537 29.9183L126.686 29.8648L127.001 29.9678L127.199 30.1402L127.569 30.3561L128.042 30.4571L128.437 30.4056L128.843 30.4967L129.083 30.4888L129.197 30.4036L129.529 30.2224L129.609 29.9767L129.576 29.74L129.615 29.4716L129.517 29.2735L129.311 28.9804L129.23 28.7843L129.223 28.5278L129.095 28.2831L128.786 27.988L128.583 27.8513L128.165 27.3402L128.023 27.2204L127.974 27.1362L127.926 26.9649L127.771 26.8827L127.568 26.749L127.459 26.6123L127.388 26.3746L127.346 26.2191L127.166 26.0903L126.987 26.018L126.785 25.9269L126.45 25.7932L126.257 25.5268L125.916 25.0266L125.723 24.8582L125.004 24.7939L124.746 24.672L124.454 24.7136L124.279 24.7939L123.893 24.7929L123.693 24.8424L123.438 25.1722L123.101 25.6001L122.822 25.8606L122.624 26.1309L122.532 26.228L122.352 26.1696L122.104 25.8655L121.751 25.5931L121.423 25.4693L121.282 25.401L120.891 25.3317L120.589 25.3534L120.204 25.4564L119.827 25.4376L119.658 25.3723L119.418 25.3792L118.984 25.6625L118.76 25.9844L118.493 26.0854L118.253 25.8744L117.975 25.6248L117.71 25.3119L117.546 25.0217L117.455 24.2511L117.773 24.0214L118.179 23.7628L118.21 23.3538L118.195 22.8972L118.275 22.3881L118.646 21.9177L118.845 21.5275L118.87 21.2838L119.048 20.8787L119.218 20.4509L119.451 19.8883L119.892 18.886L120.413 17.6955L120.673 17.0993L121.245 17.4687L121.613 17.6609L122.236 17.952L122.879 18.0174L123.494 18.3324L123.811 18.4275H123.98L124.851 17.6609L125.587 17.0102L126.432 16.5011L127.054 16.4317L127.522 16.2832L127.833 16.0544L128.018 15.6721L128.074 15.1353L127.95 14.8094L127.645 14.6965L127.566 14.5826L127.713 14.4668L127.822 14.2419L127.89 13.9072L128.067 13.5882L128.349 13.2872L128.505 12.9524L128.534 12.584L128.704 12.2155L129.014 11.8481L129.185 11.5054L129.213 11.1885L129.371 10.8002L129.799 10.1119L130.076 9.31658L130.55 8.76986L131.31 8.20731L131.785 7.64772L131.974 7.09109L131.959 6.59788L131.739 6.17001L131.696 5.73422L131.833 5.28952L131.713 4.95674L131.338 4.73588L130.89 4.68142L130.37 4.79334L130.078 4.65367L130.014 4.26346L130.153 3.94752L130.497 3.70584L131.062 3.11654L131.848 2.17566L132.63 1.6537L133.797 1.50315L134.738 1.19316L135.697 0.87821L136.389 0.721703L136.507 0.826706L136.884 0.852458L137.521 0.798959L138.112 0.663278L138.659 0.444387L139.092 0.392883L139.41 0.508767L139.597 0.52264Z"/>
</mask>
<path d="M104.572 120.119L104.71 120.25L104.801 120.439L104.875 120.787L104.919 121.108L104.639 121.312L104.388 121.394L103.883 122.176L103.778 122.423L103.693 122.526L103.667 122.632L103.676 122.739L103.546 123.114L103.431 123.574L103.358 123.763L103.213 123.907L103.03 123.98L102.911 123.991L102.803 124.031L102.536 124.282L102.236 124.47L102.287 124.556L102.29 124.638L102.158 124.729L102.013 124.711L101.59 124.786L101.435 124.926L101.277 125.186L101.216 125.221L100.961 125.282L100.767 125.305L100.435 125.121L100.27 125.068L99.8326 124.994L99.4058 124.87L99.1067 124.728L98.4936 124.382L98.4223 123.755L98.3173 123.416L98.3104 123.295L98.351 122.25L98.3936 122.135L98.4718 122.035L98.7422 121.802L99.0522 121.616L99.4969 121.228L99.8198 121.051L100.09 120.795L99.9317 120.806L99.8148 120.773L99.9297 120.555L100.054 120.438L100.197 120.374L100.484 120.42L100.75 120.374L100.946 120.18L101.132 120.139L101.841 120.202L102.332 120.113L102.578 119.934L102.694 119.927L103.056 119.977L103.191 120.163L103.179 120.039L103.195 119.917L103.261 119.93L103.736 120.16L103.737 119.878L103.764 119.804L103.911 119.686L103.985 119.688L104.17 119.916L104.349 120.049L104.572 120.119ZM103.172 116.869L103.275 116.972L103.551 116.9L103.601 117.031L103.599 117.092L103.501 117.243L103.273 117.127L103.047 117.154L102.882 117.144L102.838 117.072L102.963 116.926L103.172 116.869ZM109.451 115.247L109.178 115.309L109.12 115.296L109.215 115.143L109.462 115.037L109.451 115.247ZM109.858 115.36L109.804 115.419L109.723 115.311L109.7 115.157L109.642 115.074L109.775 114.969L109.835 114.853L109.993 114.876L110.059 114.91L109.919 115.031L109.886 115.083L109.858 115.36ZM111.984 111.771L112.007 111.909L111.79 111.698L111.728 111.686L111.625 111.607L111.564 111.474L111.733 111.469L111.887 111.627L111.984 111.771ZM124.848 106.665L124.755 106.848L124.59 106.817L124.585 106.688L124.552 106.65L124.597 106.529L124.627 106.496L124.813 106.599L124.848 106.665ZM129.401 103.735L129.194 103.877L129.065 103.81L129.063 103.619L129.128 103.448L129.053 103.324L129.126 103.178L129.28 103.134L129.335 103.226L129.421 103.275L129.448 103.325L129.449 103.421L129.367 103.58L129.431 103.666L129.401 103.735ZM133.376 95.592L133.134 95.6673H133.042L133.05 95.4395L133.248 95.2226L133.329 95.2949L133.374 95.4079L133.376 95.592ZM135.936 90.5617L135.927 90.6211L135.69 90.4141L135.576 90.3805L135.63 90.2626L135.79 90.2329L135.917 90.4924L135.936 90.5617ZM136.58 89.8823L136.553 90.0298L136.479 90.009L136.38 89.7466L136.434 89.6822L136.574 89.6981L136.58 89.8823ZM136.28 89.6555L136.239 89.7179L135.896 89.5346L135.523 89.496L135.395 89.3346L135.372 89.081L135.764 89.0919L136.247 89.3207L136.351 89.4376L136.28 89.6555ZM135.075 84.7351L134.847 84.8282L134.124 84.5499L133.613 84.2438L133.308 83.8724L133.264 83.7189L133.62 83.7447L133.967 83.8783L134.045 84.0824L134.185 84.1468L134.28 84.2656L134.924 84.5419L135.023 84.6251L135.075 84.7351ZM139.597 0.52264L139.723 0.536514L139.792 0.535516L139.926 0.442422L140.295 0.607815L141.001 1.09907L141.444 1.31696L141.627 1.26346L141.825 1.39917L142.042 1.72403L142.311 1.91518L142.794 2.00331L143.273 2.35789L143.467 2.37768L143.534 2.17862L143.713 2.06473L144.002 2.03502L144.421 2.21033L144.969 2.58965L145.313 2.75604L145.452 2.71046L145.599 2.7808L145.717 2.95807L145.728 3.17696L145.687 3.29384L145.819 3.47806H145.97L146.218 3.5662L146.412 3.89106L146.586 4.04161L146.708 4.17134L146.73 4.2793L146.741 4.38823L146.705 4.47244L146.639 4.61208L146.618 4.76164L146.702 4.93002L147.01 5.05183L147.114 5.17763L147.138 5.33806L147.234 5.51533L147.444 5.72035L147.523 5.8917L147.475 6.02937L147.537 6.14426L147.64 6.23439L147.662 6.56025L147.671 6.74743L147.84 6.95741L147.875 7.38724L147.993 7.86166L148.39 8.51038L148.522 8.86099L148.488 9.27695L148.545 9.47208L148.727 9.56618L148.813 9.74145L148.803 9.99797L148.873 10.1574L148.931 10.3268L148.892 10.5903L148.95 10.827L149.043 10.9656L149.108 11.2212L149.145 11.5401L149.411 12.0432L149.905 12.7305L150.208 13.2634L150.318 13.6417L150.319 13.9527L150.211 14.1964L150.205 14.3736L150.302 14.4846L150.331 14.6341L150.293 14.8233L150.453 15.0472L150.996 15.4354L150.779 16.0297L150.721 16.4466L150.75 16.8844L150.885 17.1924L151.124 17.3707L151.272 17.5569L151.331 17.751L151.618 17.962L152.133 18.1907L152.793 18.2314L153.599 18.0818L154.091 18.057L154.272 18.1561L154.334 18.3066L154.276 18.5077L154.413 18.6394L154.744 18.7028L154.97 18.8286L155.095 19.0187L155.248 19.0722L155.429 18.99L155.605 19.0019L155.777 19.1069L155.887 19.0702L155.985 18.9553H156.14L156.299 18.9573L156.398 19.2356L156.559 19.3921L156.781 19.4268L157.119 19.7645L157.798 20.7242L158.24 21.0639L158.682 21.1699L159.233 21.1917L159.411 21.5621L159.267 21.9533L159.23 22.2792L159.355 22.3961L159.527 22.7784L159.771 23.0002L159.817 23.1755L159.93 23.3716L159.883 23.7331L159.674 24.261L159.731 24.7107L160.054 25.0821L160.24 25.4396L160.289 25.7823L160.369 25.9903L160.483 26.0636L160.814 26.0378L161.363 25.914L161.766 25.9348L162.023 26.1022L162.658 26.1082L163.671 25.9537L164.311 25.9061L164.578 25.9655L164.816 25.7447L165.025 25.2425L165.22 25.0068L165.403 25.0365L165.693 24.8751L166.09 24.5215L166.434 24.3501L166.871 24.368L167.337 24.3858L167.628 24.2373L167.901 23.9273L168.376 23.6529L169.387 23.2934L169.63 23.2369L169.745 23.2567L170.082 23.3132L170.381 23.4538L170.664 23.7361L170.707 23.9174L170.675 24.155L170.613 24.2927L170.497 24.4472L170.388 24.6978L170.459 24.8929L170.622 25.3099L170.757 25.611L170.905 25.9655L170.839 26.0923L170.749 26.3379L170.472 26.7529L170.322 26.9114L170.159 27.0659L169.879 27.1035L169.759 27.1392L169.624 27.2046L169.538 27.3511L169.441 27.4541L169.281 27.6601L169.268 27.8374L169.34 28.1009L169.376 28.3703L169.195 28.6109L169.054 28.9804L169.012 29.0913L168.942 29.3706L168.921 29.4677L168.877 30.054L168.696 30.4531L168.443 30.9166L168.499 31.193L168.544 31.4485L168.482 31.5723L168.466 31.6802L168.429 31.9259L168.35 32.02L168.12 32.1735L167.982 32.3587L168.011 32.639L167.941 32.8816L167.836 33.0956L167.726 33.2352L167.567 33.3243L167.462 33.3996L167.383 33.671L167.359 33.881L167.285 34.09L167.331 34.3029L167.251 34.4871L167.025 34.6159L166.897 34.6921L166.779 34.7228L166.553 34.9229L166.351 35.6073L166.306 36.0044L166.352 36.357L166.069 36.5779L165.859 36.7532L165.727 36.6898L165.588 36.6304L165.267 36.5541L165.106 36.5026L164.783 36.3877L164.266 36.2421L163.761 36.0728L163.444 35.9836L163.195 35.9123L163.006 35.7954L162.846 35.5865L162.688 35.6707L162.541 35.9183L162.296 36.0648L162.186 36.3352L162.087 36.5422L161.834 36.8186L161.721 36.9324L161.225 37.1196L161.113 37.1821L160.708 37.2216L160.57 37.3039L160.428 37.4782L160.389 37.6515L160.49 37.8337L160.647 38.1982L160.721 38.4468L160.828 38.939L161.187 40.4772L161.071 40.7416L160.963 41.8875L160.989 42.0935L160.978 42.4144L160.985 42.6492L161.059 42.7076L161.156 42.7898L161.206 42.9265L161.193 43.1364L161.144 43.29L161.067 43.594L160.966 44.0328L160.854 44.2012L160.781 44.3349L160.719 44.427L160.711 44.737L160.669 44.941L160.494 45.0133L160.32 45.1321L160.113 45.0886L159.93 45.1123L159.706 45.1916L159.302 45.2837L159.069 45.4065L158.957 45.4956L158.879 45.6026L158.866 45.7056L158.919 45.7601L159.146 45.8017L159.301 45.9938L159.323 46.2038L159.163 46.3236L159.084 46.1919L158.95 46.1503L158.701 45.9651L158.519 45.7611L158.383 45.5352L158.389 45.0529L158.366 44.9806L158.119 44.8816L158.046 44.737L157.928 44.6686L157.76 44.7122L157.635 44.6666L157.535 44.5874L157.416 44.5785L157.313 44.7033L157.257 44.9717L157.084 45.4164L157.068 45.6848L156.994 46.0671L156.919 46.5514L156.857 46.6524L156.664 46.6673L156.598 46.699L156.496 46.8634L156.374 46.8911L156.266 46.7951L156.096 46.699L155.935 46.6861L155.79 46.7822L155.62 46.9912L155.523 47.1595L155.488 47.318L155.462 47.5131L155.289 47.6993L155.133 47.7974L154.809 48.0717L154.706 48.1856L154.474 48.1866L154.222 48.1757L153.881 48.25L153.326 48.2876L152.994 48.2312L152.584 48.2837L152.265 48.3728L152.219 48.5065L152.231 48.7046L152.294 48.8333L152.372 48.9195L152.505 49.1849L152.645 49.4415L152.856 49.6069L152.944 49.7851L152.948 49.9505L152.848 50.1585L152.696 50.4299L152.555 50.5973L152.449 50.5913L152.286 50.4943L152.176 50.3715L151.914 50.3259L151.272 50.4041L150.951 50.3497L150.798 50.2497L150.529 50.2427L150.114 50.109L149.861 50.0664L149.741 49.9813L149.718 49.7851L149.599 49.6504L149.532 49.489L149.381 49.2859L149.237 49.1839L149.094 49.1414L148.939 49.2642L148.772 49.3751L148.648 49.3503L148.588 49.381L148.521 49.4732L148.253 49.6613L148.191 49.8337L148.085 50.1991L148.011 50.5745L147.947 50.7072L147.839 50.73L147.729 50.8429L147.499 51.1945L147.29 51.5184L146.987 51.7372L146.843 51.9373L146.77 52.1196L146.554 52.3741L146.237 52.4196L145.984 52.4939L145.83 52.5137L145.719 52.6167L145.638 52.7732L145.599 52.8356H145.455L145.313 52.9683L144.963 53.2704L144.678 53.3269L144.321 53.5279L144.007 53.6805L143.877 53.7666L143.842 53.8617L143.796 53.9825L143.645 54.0063L143.498 54.0004L143.171 54.2767L143.006 54.5114L142.363 55.0106L142.101 55.2909L142.033 55.6534L142 55.6266L141.771 55.9426L141.321 56.2427L140.361 56.31L140.057 56.0971L139.947 56.2437L139.861 56.4407L139.609 56.5061L139.216 56.524L138.995 56.6537L138.877 56.7983L138.337 56.8449L138.139 57.038L137.802 57.1063L136.399 57.9482L136.093 58.3018L135.803 58.7148L135.6 58.9217L135.417 59.0663L135.252 59.1258L135.09 59.2684L134.925 59.2862L134.758 59.2209L134.571 59.2436L134.447 59.416L134.551 59.6408L134.493 59.7359L134.125 59.8577L133.576 59.9379L133.344 60.0845L133.263 60.1677L133.142 60.2093L133.026 59.9201L132.984 59.5378L133.211 59.4457L133.42 59.3972L134.578 58.8683L134.433 58.4701L134.536 58.2968L134.795 58.0145L134.964 57.8749L134.873 57.8234L134.113 57.9165L133.678 57.9095L133.454 57.8808L133.522 57.6392L133.484 57.3975L133.432 57.3074L133.819 57.032L133.994 56.9647L134.128 56.9687L134.118 56.8023L134.007 56.5517L134.127 56.2278L134.915 55.8465L135.104 55.4999L135.42 55.176L135.999 54.3698L136.034 54.2321L136.202 53.8528L136.232 53.7013L135.964 53.4794L135.858 53.1684L135.076 52.6059L135.009 52.1215L134.936 52.1423L134.817 52.4811L134.715 52.59L134.353 52.5999L134.181 52.4721L133.173 52.389L132.927 52.6078L132.697 52.9456L132.472 53.1872L132.246 53.311L132.05 53.5309L131.24 54.8323L130.934 54.9314L129.493 55.7148L128.771 56.0218L128.215 56.5626L128.024 56.8894L127.855 57.2519L127.752 57.7996L127.239 58.4642L127.062 58.6068L126.883 58.6643L126.644 58.6434L126.438 58.6851L126.088 58.6266L125.658 58.8366L125.174 59.0178L124.758 58.5613L124.459 58.4483L123.973 58.5751L123.747 58.7781L123.28 59.7814L123.105 60.3549L123.116 60.5896L123.389 61.3007L123.697 61.6979L124.387 62.1505L125.855 62.4615L126.2 62.3506L126.569 62.3496L126.958 62.6447L127.202 63.132L127.224 63.4638L127.232 63.5787L127.321 63.6768L127.373 63.8441L127.219 63.9828L127.1 64.0521L127 64.5662L126.994 65.1337L127.12 65.3218L127.436 65.5863L127.924 65.8042L128.376 65.8507L129.238 65.7458L129.591 65.4041L129.57 65.2565L129.579 65.0653L130.339 64.5632L130.771 64.1175L130.704 63.9996L130.621 63.9214L130.697 63.8758L130.934 63.8441L131.99 63.3786L132.821 63.759L133.295 64.1967L133.764 64.27L134.089 64.4939L134.465 64.684L134.954 64.6969L135.367 64.7365L135.493 64.5602L135.622 64.4444L135.769 64.4671L135.934 64.6979L136.404 64.8752L136.837 64.8663L137.14 64.8019L137.32 64.8841L137.06 65.1792L137.098 65.6546L136.899 65.8052L136.708 66.0468L136.821 66.2063L136.921 66.2736L136.911 66.4668L136.737 66.5767L136.414 66.8639L136.228 66.859L136.139 66.8035L136.077 66.7005L136.03 66.5351L135.918 66.4262L135.605 66.3846L135.28 66.4242L134.549 66.8501L133.835 67.1888L133.087 67.4572L132.836 67.6265L132.658 67.6731L132.348 67.5453L132.161 67.5533L132.121 67.6414L132.36 67.8772L132.422 68.0613L132.398 68.203L132.262 68.2654L132.065 68.1624L131.885 68.3099L131.803 68.5585L131.799 69.1498L131.681 69.2816L131.351 69.3539L131 69.542L130.875 69.4549L130.826 69.3489L130.863 69.0775L130.819 68.9448L130.659 68.9517L130.417 69.033L130.233 69.2112L130.169 69.3192L130.412 69.6668L130.643 69.7025L130.699 69.7807L130.516 69.9501L130.059 70.2017L129.983 70.4126L129.847 70.6146L129.661 70.7751L129.534 70.9445L129.38 71.0326L129.127 71.1317L128.817 71.5358L128.59 71.9131L128.321 72.1072L128.108 72.7431L127.727 73.0877L127.586 73.6384L127.685 73.9761L128.104 73.9732L128.313 74.092L128.747 74.5357L129.266 74.8249L129.805 74.9874L130.465 75.3964L130.648 75.5697L130.803 75.9213L131.089 76.9316L131.295 77.4307L131.309 77.6912L131.618 78.1815L131.948 79.0233L132.328 79.7503L132.401 80.3217L132.278 80.5822L132.279 80.92L132.658 81.23L133.502 81.5895L133.637 81.6955L133.802 81.8698L133.81 82.4116L133.941 82.5839L134.051 82.6889L134.562 82.9176L134.776 83.1078L135.002 83.4109L135.068 83.6823L135.096 84.0497L134.81 84.0626L134.581 84.021L133.666 83.5436L133.429 83.5307L133.093 83.5971L132.615 83.5089L132.109 82.9791L131.745 82.8186L131.354 82.7374L130.421 83.193L130.183 83.1603L130.115 83.2118L130.01 83.29L130.443 83.3881L130.876 83.2385L131.292 83.0177L131.899 83.1355L132.001 83.3346L132.102 83.6704L132.517 83.8972L132.844 83.9972L133.26 84.2943L133.666 84.7578L134.527 85.2947L134.876 85.8018L135.01 86.1286L135.131 86.5951L134.83 86.7456L134.568 86.7664L134.157 86.8397L133.855 87.0051L133.551 87.2943L132.683 87.7489L132.519 88.0332L132.406 88.2808L132.194 88.4026L131.662 88.2867L131.161 88.2966L130.593 88.6304L130.451 88.7661L130.546 88.7393L130.635 88.6968L130.89 88.7473L131.285 88.569L131.672 89.1127L132.425 89.0246L133.134 88.573L133.408 88.565L133.637 88.6343L133.893 88.8126L134.575 89.604L134.949 89.6901L135.315 89.8754L135.518 89.8962L135.702 89.9516L135.208 90.2408L134.572 90.8648L134.288 91.0133L134.098 91.1797L134.611 91.0966L134.976 90.7984L135.16 90.7251L135.308 90.7945L135.383 91.1619L135.242 92.289L135.063 92.3088L134.889 92.0028L134.685 91.9057L134.513 91.9691L134.173 91.9671L134.044 92.1058L133.935 92.3019L134.138 92.3425L134.538 92.6842L134.579 92.8654L134.472 92.9833L134.191 92.9328L134.532 93.1873L134.442 93.4508L134.332 93.5548L134.134 93.6211L134.012 93.8489L134.187 94.2282L134.365 94.7135L134.386 94.9473L134.109 94.8463L133.676 95.1424L133.448 95.1672L133.294 94.7769L133.097 94.8383L132.965 94.9513L132.79 95.3692L132.576 95.7466L132.392 95.8496L132.171 95.8198L131.989 95.8308L132.033 95.9328L132.225 96.0566V96.2012L131.815 96.6597L131.749 96.837L131.759 96.9876L131.544 97.1708L131.66 97.4788L131.599 97.6957L131.411 97.9889L131.213 98.182L130.98 98.495L130.685 98.6762L130.296 99.3309L130.181 99.6577L130.152 99.9955L130.031 100.112L129.822 100.259L129.584 100.185L129.576 99.9598L129.473 99.94L129.414 99.7924L129.397 99.6052L129.421 99.4537L129.322 99.5003L129.261 99.6756L129.105 99.8182L128.941 99.7607L128.765 99.6439L128.77 99.8122L128.864 99.9816L128.904 100.151L129.148 100.188L129.311 100.382L129.44 100.68L129.466 100.792L129.566 100.924L129.58 101.038L129.347 101.143L129.056 101.339L128.706 101.675L128.418 101.899L128.158 101.901L128 101.875L127.775 101.747L127.517 101.693L127.864 102.146L128.053 102.226L128.29 102.209L128.521 102.041L128.849 102.059L128.931 102.319L128.844 102.613L128.665 102.994L128.628 103.324L128.85 103.796L128.86 103.937L128.777 104.008L128.516 103.884L128.301 103.727L128.084 103.769L127.86 103.703L127.629 103.758L127.535 103.867L127.598 104.046L127.805 104.195L127.921 104.424L127.782 104.504L127.195 104.45L127.064 104.494L126.889 104.746L127.003 105.118L126.873 105.349L126.631 105.403L126.314 105.589L126.117 105.633L126.127 105.714L126.271 105.795L126.347 105.905L126.174 106.285L125.905 106.409L125.493 106.347L125.17 106.432L124.889 106.271L124.59 106.268L124.387 106.472L124.365 106.709L124.168 106.732L124.062 106.714L123.913 106.731L123.929 106.858L124.014 106.969L124.418 107.019L124.49 107.178L124.506 107.424L124.083 107.847L123.903 108.132L123.631 108.124L123.426 108.353L123.316 108.663L123.181 108.601L122.867 108.651L122.775 108.798L122.848 108.86L122.855 108.966L122.729 109.313L122.592 109.411L122.533 109.269L122.489 109.048L122.379 109.031L122.195 109.234L121.981 109.38L121.798 109.44L121.66 109.305L121.32 109.235L121.181 109.818L120.9 110.03L120.768 110.097L120.538 110.117L120.685 110.197L120.73 110.346L120.648 110.495L120.419 110.525L120.285 110.64L120.233 111.16L120.097 111.343L119.748 111.358L119.488 111.237L119.404 111.332L119.361 111.425L119.224 111.519L118.961 111.544L118.375 111.776L118.107 111.709L117.787 111.621L117.566 111.707L117.493 111.885L117.391 112.024H117.07L116.812 111.853L116.55 111.729L116.26 111.836L116.039 112.054L115.768 112.127L115.717 112.263L115.599 112.33L115.312 112.301L115.203 111.965L115.038 111.915L114.874 112.086L114.816 112.218L114.739 112.319L114.766 112.594L114.605 112.6L114.394 112.431L114.172 112.401L113.965 112.558L113.86 112.519L113.749 112.487H113.568L113.498 112.528L113.366 112.553L113.277 112.638L113.269 112.645L113.035 112.588L112.749 112.36L112.544 111.982L112.283 111.777L112.168 111.598L112.124 111.276L112.076 111.123L112.092 110.952L112.171 110.801L111.891 110.877L111.684 111.019L111.727 111.197L111.675 111.363L111.366 111.449L111.385 111.518L111.406 111.591L111.647 111.817L111.697 112.006L111.795 112.107L111.984 112.401L111.979 112.97L112.083 113.13L112.048 113.29L111.973 113.505L111.966 113.508L111.911 113.442L111.82 113.455L111.783 113.528L111.777 113.593L111.761 113.596L111.601 113.643L111.466 113.684L111.357 113.742L111.186 113.911L110.86 113.952L110.693 113.556L110.468 113.821L110.4 114.361L110.317 114.453L110.178 114.53L109.913 114.342L109.682 114.467L109.502 114.595L109.428 114.713L109.295 114.841L109.041 114.717L108.836 114.532L108.887 114.392L108.858 114.301L108.766 114.232L108.664 114.242L108.715 114.423L108.748 114.77L108.655 114.87L108.512 114.947L108.202 114.883L107.991 114.755L107.734 114.646L107.508 114.626L107.459 114.845L107.312 115.021L107.177 115.043L107.041 115.015L106.863 115.205L106.778 115.344L106.559 115.491L105.974 115.562L105.77 115.706L105.497 115.684L105.285 115.718L105.163 115.71L105.054 115.632L104.931 115.63L104.875 115.872L104.544 115.974L104.247 116.002L103.916 116.321L103.68 116.514L103.505 116.533L103.376 116.465L103.312 116.18L103.247 116.146L103.209 116.415L103.147 116.637L103.026 116.759L102.643 117.037L102.534 117.312L102.607 117.566L103.121 117.629L103.184 117.769L103.135 117.882L103.012 117.978L102.975 118.12L103.527 118.574L103.544 118.745L103.459 118.843L103.356 119.054L103.064 119.232L102.448 119.324L101.934 119.231L101.779 119.028L101.789 118.884L101.916 118.925L102.061 118.912L102.018 118.78L101.956 118.703L101.719 118.585L101.527 118.267L101.564 118.002L101.46 117.797L101.345 117.626L101.23 117.523L101.168 117.395L101.285 116.993L101.22 116.759L101.44 116.472L101.495 116.148L101.887 116.032L101.914 115.723L101.632 115.714L101.437 115.488L101.393 115.584L101.236 115.594L100.979 115.156L100.901 115.1L100.777 115.092L100.839 115.554L100.537 115.727L100.289 115.804L99.9386 115.835L99.7386 115.889L99.5523 115.845L99.5979 115.706L99.6969 115.539L99.6088 115.399L99.4107 115.293L99.1077 115.298L98.8987 115.269L98.6907 115.281L98.6145 115.218L98.4213 114.999L98.2579 114.864L98.1846 114.728L98.2579 114.57L98.1965 114.474L97.8805 114.464L97.8825 114.689L97.9152 114.956L98.0073 115.158L97.9419 115.271L97.7815 115.348L97.6101 115.134L97.5319 115.082L97.4497 115.091L97.3873 115.304L97.2318 115.494L96.9525 115.473L96.7346 115.59L96.4712 115.643L96.2919 115.487L95.9957 115.235L95.8779 115.206L95.5491 115.329L95.0767 115.375L94.9716 115.244L94.7439 115.343L94.524 115.041L94.2635 115.021L93.9387 114.792L93.8218 114.671L93.7851 114.496L93.6861 114.405L93.5593 114.417L93.4177 114.324L93.1939 114.232L93.0136 114.177L92.9245 114.219L92.8304 114.241L92.8136 114.124L92.8205 113.771L92.8037 113.458L92.7542 113.317L92.6333 113.21L92.5243 113.158L92.4758 112.997L92.5154 112.68L92.6046 112.465L92.7452 112.426L92.9354 112.272L93.0324 112.052L93.1543 111.848L92.7205 111.562L92.4926 111.459L92.2401 111.502L91.9262 111.593L91.7627 111.611L91.6805 111.575L91.4973 111.318L91.3982 111.273L91.1764 111.257L90.9892 111.259L90.8822 111.37L90.7158 111.408L90.5495 111.414L90.3811 111.274L90.1275 111.092L89.7304 110.963L89.6818 110.816L89.5808 110.639L89.4303 110.474L89.1807 110.256L88.9717 110.143L88.8697 110.213L88.731 110.336L88.1943 110.597L87.9565 110.699L87.8297 110.771L87.7238 110.88L87.6911 111.149L87.6386 111.448L87.4841 111.599L87.3375 111.714L87.184 111.726L87.0335 111.721L86.8918 111.769L86.46 112.069L86.257 112.045L86.0896 111.876L86.0183 111.753L85.8251 111.78L85.5775 111.924L85.4627 112.182L85.4022 112.422L85.3478 112.529L85.2646 112.56L85.1913 112.565L84.4197 111.871L84.3722 111.835L84.2335 111.978L84.1077 112.346L84.0176 112.416L83.9562 112.388L83.6373 111.916L83.5551 111.872L83.4828 111.887L83.3867 112.04L83.1847 112.265L83.0302 112.401L83.0262 112.553L82.8579 112.687L82.6627 112.82L82.5974 112.834L82.4676 112.781L82.2983 112.604L82.1754 112.418L81.8714 112.234L81.5307 112.079L81.3049 111.957L81.1761 111.927L81.0563 111.982L80.9959 112.056L80.9107 112.24L80.7067 112.541L80.5244 112.781L80.355 112.934L80.2204 113.04L80.1193 112.941L79.9332 112.86H79.7143L79.426 113.013L79.1992 112.707L79.1398 112.693L79.0526 112.718L78.9516 112.791L78.8823 112.961L78.809 113.194L78.6644 113.346L78.5445 113.414L78.5792 113.544L78.6476 113.686L78.6426 113.81L78.6862 114.005L78.7614 114.2L79.0298 114.52L79.1329 114.686L79.1536 114.831L79.1636 115.344L79.1527 115.558L79.0992 115.97L79.0953 116.208L79.2071 116.315L79.3151 116.442L79.3102 116.512L79.2626 116.536L79.1091 116.678L79.0447 116.697L78.9437 116.638L78.813 116.595L78.709 116.538L78.5931 116.447L78.3188 116.457L77.8681 116.596L77.775 116.556L77.7106 116.478L77.675 116.316L77.6968 116.125L77.6571 116.004L77.573 115.931L77.6334 115.592L77.4729 115.457L77.4957 115.415L77.4422 115.048L77.4492 114.957L77.4214 114.926L77.3085 114.897L77.1402 114.955L76.6281 115.196L76.1884 115.643L75.9873 115.742L75.7843 115.783L75.5456 115.706L75.2811 115.655L74.9038 115.768L74.7176 115.715L74.6314 115.624L74.5552 115.486L74.6017 115.309L74.573 115.18L74.4224 115.114L74.2471 115.058L74.1432 114.888L74.1016 114.703L74.1421 114.463L74.163 114.204L74.0788 114.085L73.8222 114.021L73.1755 113.903L72.609 113.839L72.3713 113.869L72.1772 113.841L72.0652 113.793L72.0108 113.712L72.0078 113.595L72.0999 113.327L72.2039 113.064L72.4673 112.682L72.4832 112.416L72.4693 112.11L72.6001 111.701L72.8268 111.395L72.9388 111.299L72.9121 111.162L72.8209 111.038L72.6912 110.968L72.4763 110.888L72.1415 110.866L71.682 110.784L71.1501 110.602L71.2115 110.252L71.2026 110.033L71.1372 109.853L71.0293 109.725L70.9679 109.611L71.0639 109.298L70.9401 108.956L70.7946 108.819L70.644 108.642L70.6321 108.451L70.7004 108.272L71.0689 107.889L71.0718 107.796L70.9808 107.804L70.8757 107.812L70.3726 107.951L70.3182 107.863L70.1379 107.813L69.7704 107.803L69.3406 107.829L68.7969 107.965L68.2977 108.205L68.0709 108.369L67.8778 108.471L67.7213 108.505L67.54 108.433L67.5499 108.198L67.8906 107.767L67.9391 107.471L67.8362 107.217L67.8243 107.013L67.7044 106.883L67.5371 106.819L67.4479 106.675L67.442 106.251L67.5915 105.814L67.8342 105.677L67.9817 105.61L68.0213 105.525L67.9461 105.218L67.958 105.023L68.1026 104.645L68.2472 104.359L68.5205 104.407L68.6433 104.335L68.779 104.233L68.9266 104.061L69.0257 103.856L69.1465 103.381L69.2287 103.309L69.5733 103.389L69.6763 103.333L69.8645 103.054L70.0428 102.713L70.3013 102.608L70.4875 102.597L70.5737 102.484L70.5687 102.318L70.3914 102.054L70.3171 101.843L70.3389 101.714L70.5925 101.636L70.6549 101.482L70.6173 101.145L70.7212 100.74L70.7836 100.266L70.8044 99.9113L70.8015 99.6409L70.7767 99.3567L70.7411 98.8377L70.6252 98.385L70.646 98.2147L70.6301 97.665L70.5588 97.1955L70.4162 97.1133L70.1508 96.9608L70.0062 96.9311L69.8853 96.9866L69.8397 97.15L69.7229 97.3025L69.5793 97.2649L69.511 97.1123L69.4188 96.9123L69.1108 95.9605L69.0772 95.6861L69.0227 95.4128L68.9197 95.2761L68.8107 95.1949L68.5651 94.874L68.4363 94.7403L68.3739 94.7185L68.2393 94.7413H68.1065L67.9985 94.5808L67.8995 94.3847L67.8005 94.2887L67.6341 94.2352L67.4637 94.256L67.3637 94.4253L67.2964 94.5214L67.1676 94.7472L66.9596 95.0592L66.8646 95.1741L66.7724 95.1147L66.3713 94.7898L66.1782 94.6997L65.9148 94.7978L65.5037 94.7205L65.3453 94.7056L65.0026 94.4461L64.8629 94.4144L64.3766 94.5838L64.2697 94.7037L64.2073 94.7056L64.0775 94.6452L63.9715 94.565L63.9646 94.5145L64.0964 94.3877L64.1062 94.2986L64.0993 94.2085L64.2885 93.9529L64.8045 93.4577L64.7183 93.2497L64.5153 92.8397L64.4886 92.6406L64.4004 92.5505L64.1538 92.6238L63.6407 92.9962L63.5704 92.9556L63.5833 92.8268L63.5298 92.4514L63.6922 92.3385L63.9418 92.2009L64.1339 92.0473L64.1785 91.9235L64.126 91.8849L63.8428 91.9335L63.7309 91.8493L63.5456 91.5036L63.4099 91.3679L63.2872 91.2946L62.8692 91.4729L62.3839 91.7175L61.8431 92.0582L61.8461 92.2325L61.7817 92.2771L61.6787 92.387L61.5777 92.5386L61.4915 92.5921L61.3905 92.597L61.1845 92.5544L60.8111 92.3821L60.406 92.2395L60.3189 92.2553L59.7682 92.1543L59.7504 92.0731L59.6671 91.9136L59.5107 91.769L59.3611 91.7205L58.9303 92.0256L58.444 92.2524L58.1677 92.5208L57.9399 92.7872L57.6784 92.8387L57.6665 93.0031L57.5566 93.1507L57.3585 93.3329L56.9653 93.5647L56.6988 93.6895L55.853 93.8033L55.551 93.8806L55.4242 94.0024L55.2885 94.3114L55.1815 94.5957L54.9478 94.8304L54.5219 95.1434L54.0217 95.3969L53.8841 95.5653L53.8594 95.6653L53.9218 95.702L53.9832 95.7783V95.8931L53.9188 96.0179L53.5919 96.2358L53.4077 96.3398L53.2245 96.4062L53.0195 96.4181L52.8223 96.3884L52.7679 96.3527L52.6897 96.3983L52.5094 96.4438L52.3529 96.4587L52.0092 96.7003L51.8201 96.7023L51.5843 96.6498L51.2734 96.6082H51.0485L51.0416 96.4805L51.0762 96.0972L50.9743 96.008L50.6632 95.9139L50.3126 95.7891L50.1443 95.6564L50.0502 95.6119L49.9185 95.6337L49.7075 95.7733L49.5074 95.9377L49.349 95.9516L49.1866 95.8753L49.032 95.7743L48.5012 95.6327L48.2635 95.6119L47.8386 95.6356L47.4919 95.6059L47.4375 95.5623L47.4384 95.4831L47.49 95.3296L47.5197 95.178L47.4791 95.0919L47.1255 94.9859L46.8026 94.9096L46.4589 94.8809L46.2282 94.9344L46.0023 95.0533L45.8161 95.2672L45.5468 95.3603L45.2249 95.5197L45.0694 95.6683L44.8336 95.9872L44.4909 96.3784L44.18 96.7598L44.0185 97.1302L43.8046 97.3629L43.5877 97.5303L43.4312 97.9909L43.2678 97.8453L43.0806 97.6363L43.036 97.3501L43.2579 96.5894L43.3104 96.2725L43.2539 96.1516L43.1846 95.8396L43.0529 95.7367L42.6765 95.5732L42.5567 95.5683L42.4279 95.6812L42.3022 95.7525L42.1348 95.8238L41.7148 95.9575L41.3424 96.0199L41.2533 96.0695L41.2255 96.1586L41.2553 96.2645L41.0156 96.2239L40.765 96.2012L40.5629 96.216L40.0688 96.4181L39.9014 96.4379L39.7152 96.4171L39.4616 96.4111L38.9793 96.4171L38.5643 96.3656L38.2265 96.0833L37.9879 95.9585L37.7333 95.8624L37.4768 95.7901L37.3916 95.6386L37.3104 95.5623L37.0994 95.5376L36.9321 95.593L36.8281 95.9744L36.739 96.0496L36.527 96.0833L36.3041 95.9862L35.9961 95.7901L35.8753 95.5722L35.7723 95.5019L35.6099 95.598L35.6009 95.8773L35.5692 96.0645L35.3761 96.1407L35.2642 96.0853L35.1741 95.8931L34.9473 95.4366L34.7225 95.1692L34.4956 94.9909L33.7519 94.9958L33.2002 94.9433L32.9506 94.87L32.8565 94.6937L32.9476 94.3412L33.0546 94.0658L33.0516 94.0014L32.9605 93.9688L32.802 93.947L32.2068 94.1233L32.0444 94.1025L31.9414 94.0421L31.8156 93.9906L31.7115 93.9083L31.6392 93.7885L31.1243 93.4944L30.9727 93.3329L30.6984 93.1309L30.4666 92.9932L30.32 92.599L30.1863 92.2197L30.1131 92.0176L29.8922 91.9107L29.6535 91.8295L29.2494 91.9949L28.9176 92.1206L28.674 92.1335L28.3223 91.7443L28.0401 91.3233L27.7063 90.9559L27.4845 90.7707L27.0913 90.7529L26.6485 90.5459L26.0543 90.0744L25.6255 89.7228L24.8866 89.3316L24.7143 89.1672L24.6489 89.0275L24.5479 88.7522L24.3934 88.4907L23.8694 88.3769L23.2771 88.2956L22.6522 88.4561L22.2026 89.2385L21.9857 89.4089L21.7994 89.4188L21.6469 89.2197L21.5212 89.0107L21.4528 88.7789L21.1418 88.6076L20.7902 88.3838L20.6099 88.2095L20.4069 88.1005L20.2177 88.054L19.8533 87.9064L19.4403 87.74L19.2461 87.7172L19.2323 87.5984L19.2907 87.3458L19.2551 87.1032L19.1303 87.0041L18.9421 87.0299L18.5063 86.6852L18.4845 86.6674L18.3607 86.5693L18.1458 86.4287L17.7833 86.4386L17.509 86.4901L17.3079 86.3465L17.0167 86.1187L16.9642 86.0682L16.878 85.985L16.5829 85.5452L16.2343 85.0243L16.058 84.948L15.9669 84.9876L15.8639 85.264L15.7866 85.2362L15.6569 85.2551L15.5044 85.3521L15.3578 85.3769L15.2636 85.3481L15.224 85.2798L15.2656 84.9144L15.1765 84.8004L15.2557 84.5459L15.3894 84.326L15.2528 84.1626L15.0844 83.9289L15.0656 83.7169L15.1567 83.4495L15.2013 83.2207L15.1735 83.1365L15.0408 83.0088L14.5347 82.3789L14.508 82.3125L14.4228 82.1025L14.3832 81.7856L14.3178 81.5588L14.2406 81.3845L14.2465 81.3023L14.305 81.2597L14.6209 81.2171L14.913 81.1904L15.1052 81.1309L15.2052 81.2577L15.2518 81.4518L15.3023 81.5538L15.4875 81.7381L15.7133 81.9143L15.9322 81.8916L16.1253 81.8163L16.2927 81.5291L16.4106 81.4588L16.5482 81.4459V81.4251L16.5403 81.2399L16.5888 80.7833L16.572 80.6001L16.5096 80.4347L16.5205 80.2505L16.4997 79.983L16.3423 79.7998L16.2393 79.7295L16.2224 79.6304L16.2759 79.4472L16.3125 79.2363L16.2581 79.0808L16.2491 79.057L16.1214 78.9768L15.9718 78.8411L15.7936 78.6579L15.7054 78.5251L15.5608 78.3786L15.3845 78.1508L15.3518 77.6506L15.334 77.1237L15.2726 76.8612L15.1745 76.4423L15.1894 76.3016L15.2488 76.1947L15.746 75.856L15.8539 75.7242L15.8718 75.6242L15.852 75.4756L15.7579 75.3102L15.5598 75.1815L15.2765 74.9715L15.02 74.7526L14.5882 74.6189L14.0642 74.4555L13.9385 74.2961L13.8117 73.9058L13.5958 73.3096L13.366 72.6727L13.1887 72.2795L13.1798 72.0904L13.2858 71.6071L13.2729 71.5041L13.1798 71.4684L13.0026 71.5318L12.8609 71.6081L12.7401 71.5684L12.6282 71.4872L12.6054 71.4595L12.5964 71.4486L12.3865 71.5011L11.9656 71.5308L11.82 71.5258L11.6159 71.5189L11.1941 71.408L10.6246 71.2584L10.0372 71.0504L9.7262 70.885L9.61727 70.8276L9.35086 70.6553L9.16172 70.5067L9.12804 70.1175L8.99034 70.1472L8.66747 70.2878L8.2951 70.377L8.08908 70.378L8.00584 70.3155L7.88204 69.9045L7.79197 69.7887L7.62458 69.7431L7.44232 69.6708L7.3502 69.5638L7.3294 69.4281L7.41065 69.2726L7.5067 69.1528L7.52351 68.4199L7.46112 68.1594L7.40865 67.9405L7.27494 67.6682L7.15017 67.4998L6.96198 67.3433L6.66977 67.1809L6.40929 67.1205L6.09434 67.2393L5.99435 67.1938L5.86257 66.6906L5.77843 66.5876L5.21884 66.3806L4.96531 66.3331L4.67309 66.3974L4.50673 66.4529L4.37301 66.3608L4.16404 66.2439L3.95899 66.1637L3.70449 66.1608L3.54007 66.2103L3.49848 66.1815L3.41923 66.0894L3.08052 65.8111L3.06861 65.7408L3.58758 65.4664L3.89364 65.3625L4.05408 65.2793L4.08775 65.2971L4.167 65.4239L4.36902 65.5071L4.51169 65.4843L4.58598 65.4209L4.83751 65.2693L5.03362 65.0931L5.14357 64.9485L5.08415 64.7207L4.77513 64.4444L4.57903 64.2968L4.51858 64.1967L4.56911 63.8966L4.64045 63.5985L4.59287 63.4846L4.53448 63.3876L4.50872 63.0617L4.37398 62.6675L4.22739 62.4378L4.18683 62.1268L4.17891 61.8356L4.35615 61.378L4.2908 61.1799L4.10461 61.0036L3.46281 60.6847L2.80517 60.4738L2.5546 60.4817L2.39912 60.4688L2.21487 60.655L2.10497 60.8986L1.95143 60.9204L1.67112 60.8174L1.48397 60.6609L1.35122 60.3351L1.24821 59.9152L1.18981 59.7834L1.2195 59.6695L1.28387 59.5685L1.46317 59.4734L1.49285 59.3764L1.46613 59.2565L1.32154 59.105L1.17398 58.891L0.943176 58.4464L0.987728 58.2007L1.02442 57.8472L1.01052 57.661L1.24428 57.6124L1.54236 57.5164L1.68103 57.3569L1.77709 57.1945L1.79795 57.0935L1.70781 56.7042L1.58897 56.5309L1.57706 56.3962L1.63552 56.2932L1.71374 56.1159L1.86426 55.7514L2.01085 55.5187L2.09107 55.4602L2.27037 55.4058L2.70809 55.3414L3.17857 55.178L3.73713 54.6887L3.92338 54.5491L4.167 54.4787L4.34134 54.4837L4.37301 54.4243L4.26009 54.1202L4.28784 54.0103L4.35421 53.9241L4.43836 53.8845L4.82561 54.0449L5.12175 54.0281L5.48228 53.933L6.25973 53.3962L6.35681 53.4041L6.43504 53.4764L6.52916 53.8003L6.6361 54.4817L6.69552 54.5669L7.23631 54.5758L7.60475 54.3282L7.76622 54.2698L8.02767 54.3103L8.16634 54.1945L8.31094 54.1133L8.47832 54.3985L8.69419 54.2618L8.92699 54.0449L9.04087 53.8201L9.19835 53.5774L9.32112 53.2694L9.37069 52.9783L9.43108 52.8416L9.56184 52.7009L9.88373 52.0997L10.1154 51.9462L10.3354 51.8918L10.8791 51.9958L11.1614 51.9829L11.9893 52.0621L12.3716 51.9462L12.6391 51.8313L13.0313 51.8492L13.4958 51.758L14.1148 51.0004L14.1227 50.839L14.1604 50.6676L14.3841 50.4982L14.6625 50.3427L15.2171 49.9713L16.3452 49.382L16.7493 49.1453L16.9177 49.1513L17.3336 49.0027L18.0626 48.7135L18.2686 48.353L18.4607 48.2807L19.3125 48.2163L19.366 48.1747L19.3957 48.1133L19.3482 47.8518L19.2927 47.627L19.359 47.5607L19.4304 47.4577L19.4195 47.3131L19.2818 46.8436L19.2085 46.3979L19.16 45.9948L19.1689 45.8443L19.2719 45.5838L19.4056 45.3471L19.8879 45.1262L20.2078 45.0598L20.2207 44.9152L19.9622 44.8251L19.7751 44.6805L19.7424 44.5983L19.7512 44.5042L19.7948 44.4181L20.1197 44.2556L20.4257 44.0942L20.7991 44.1922L20.8724 44.1298L20.8942 43.9684L20.814 43.806L20.7387 43.5395L20.5664 43.4029L20.5595 43.2395L20.6654 42.9572L20.5188 42.4342L20.3594 41.9717L20.089 41.1774L19.9097 40.9476L19.8097 40.5802L19.6978 40.387L19.7077 40.1008L19.7265 39.8997L19.6978 39.5006L19.6453 39.0668L19.6978 38.6261L19.7988 38.3349L19.772 38.223L19.8255 38.1398L19.9781 38.112L20.0504 37.9922L19.9781 37.8694L19.7146 37.7743L19.4205 37.6268L19.0669 37.6436L18.7044 37.6693L18.5231 37.5604L18.3647 37.4207L18.3557 37.3316L18.5737 37.0959L18.8767 36.8512L19.3472 36.7433L19.8651 36.5818L20.1276 36.465L20.4773 36.3808L20.8813 36.3451L21.0844 36.3689L21.6043 36.2124L22.4224 35.9094L23.1652 35.6548L23.4148 35.5033L23.601 35.6548L23.6872 35.9886L23.9041 36.1609L24.119 36.2441L24.2428 36.2401L24.6132 36.1104L25.0134 36.0153L25.1709 36.0668L25.3739 36.2372L25.6017 36.3897L25.7205 36.3828L25.8245 36.2649L25.9295 36.0272L25.9958 35.7241L26.0097 35.4032L25.9701 35.2071L25.8899 35.1348L25.5254 35.019L25.1778 34.8298L25.1382 34.6565L25.1461 34.5327L25.2382 34.2296L25.465 33.672L25.6928 32.9005L25.8136 32.2894L26.195 31.3752L26.495 30.4185L26.9803 29.0358L27.0616 28.7615L27.1061 28.3227L27.1319 28.1415L27.3013 28.0464L27.5865 28.1395L28.2827 28.4565L28.8126 28.7229L29.0345 28.813L29.3643 28.9071L29.8743 29.018L30.1695 28.9853L30.428 28.92L30.7726 28.914L31.3105 28.9962L31.4768 28.9992L31.6839 29.0101L31.8304 29.1448L31.9037 29.4488L32.0146 29.5855L32.2157 29.535L32.6436 29.2666L32.9169 29.0556L33.2586 28.7496L33.5974 28.708L33.9569 28.6397L34.0816 28.4881L34.2144 28.1316L34.4352 27.8622L34.4719 27.5195L34.3946 27.2779L34.2411 26.8837L34.246 26.6172L34.1718 25.8437L34.0727 25.1455L34.1737 24.5819L34.352 23.95L34.4214 23.7559L34.5343 23.5014L34.6937 23.1953L34.9176 23.0993L35.5465 23.0339L36.1288 22.9051L36.4259 22.7724L36.735 22.6922L36.9192 22.5951L37.2361 22.1465L37.3867 21.888L37.4976 21.2006L37.4164 20.8698L37.4837 20.5766L37.6373 20.4043L37.8532 20.231L37.9978 20.2013L38.3058 20.1488L38.8109 20.1666L39.0684 20.2508L39.3299 20.2904L39.4953 20.228L39.6052 20.0963L39.7746 20.0547L40.0291 19.9913L40.2916 19.9121L40.4362 19.927L40.4659 20.1221L40.4421 20.2746L40.4926 20.4786L40.5966 20.6133L40.5629 20.7589L40.4163 20.8431L40.2717 20.957L40.2401 21.1125L40.4233 21.3056L40.4857 21.4908L40.7927 21.6017L41.0314 21.7265L41.1205 21.8464L41.0938 21.9811L40.9839 22.1257L40.8779 22.2812L40.864 22.3743L40.8977 22.4832L41.1275 22.5555L41.3939 22.6754L41.8158 22.8299L42.105 23.1171L42.3923 23.1963L42.5309 23.4756L42.5557 23.8807L42.8498 24.0867L43.2847 24.3729L43.5055 24.4254L43.653 24.5879L43.866 24.784L44.0552 24.8454L44.28 24.8741L44.6504 24.6918L45.0664 24.674L45.2932 24.778L45.5091 25.1702L45.6616 25.294L45.7518 25.404L45.8974 25.509L46.0449 25.5248L46.2648 25.4376L46.3985 25.2643L46.5906 25.3L46.6629 25.4129L46.6986 25.606L46.8006 25.8457L47.0443 26.024L47.3849 26.13L47.4325 26.2171L47.48 26.4558L47.5722 26.6212L47.696 26.8371L47.8138 27.2303L47.8386 27.5552L47.893 27.7334L48.0505 28.0236L48.3021 28.4871L48.5021 28.8794L48.7339 28.9556L48.931 29.0794L49.0439 29.3686L49.2529 29.9124L49.2866 30.2669L49.3044 30.5314L49.3727 30.6512L49.3876 30.8008L49.2133 31.3683L49.0657 31.6238L49.0469 31.8387L49.1469 32.2121L49.2846 32.5013L49.2984 32.7776L49.1816 32.9797L48.9805 33.2323L48.8835 33.3768L48.727 33.5036L48.4873 33.9909L48.3794 34.5287L48.3546 34.805L48.4457 35.0051L48.5982 35.225L48.6358 35.4151L48.8864 35.84L48.9528 36.1025L49.0558 36.1114L49.1658 36.0252L49.4342 36.0193L49.6778 36.1124L49.9115 36.3065L50.1621 36.4095L50.5206 36.3838L50.7118 36.4877L50.9178 36.5729L51.3447 36.6026L51.6646 36.6017L52.1558 36.6046L52.553 36.7354L53.2512 36.8384L53.683 36.8304L54.2634 36.7334L54.619 36.7948L55.6718 36.9394L56.2878 37.0909L56.6781 37.2613L56.9524 37.5307L57.2664 37.9506L57.516 38.1428L58.1865 38.2586L58.647 38.7479L59.0065 38.9301L59.6117 39.4026L60.0396 39.5868L60.5516 39.7561L61.3865 39.6839L61.4331 39.7472L61.3687 40.0028L61.3182 40.3524V40.6049L61.4044 40.7337L61.7232 40.81L61.8738 40.9338L61.9887 41.1714L62.0551 41.319L62.3235 42.046L62.7533 43.1166L62.8028 43.5277L62.9494 43.7921L63.4159 44.211L63.6606 44.5211L64.025 44.8459L64.1448 45.146L64.1716 45.5332L64.2637 45.6333L64.9303 45.5442L65.5077 45.4818L66.5436 45.3708L67.9698 45.5729L69.4407 45.768L70.7411 45.9403L71.3818 46.0245L72.8299 46.2058L73.6351 45.975L74.264 45.7947L74.5492 45.8195L75.7516 46.0225L76.4568 46.1315L77.3442 46.2681L77.9602 46.3186L78.4654 46.3157L78.6981 46.3731L78.9229 46.4613L79.0725 46.59L79.534 47.2398L79.7925 47.526L80.3046 47.7419L81.4673 47.9885L82.1111 48.1381L82.85 48.3094L83.3372 48.5679L83.8978 48.868L84.6237 49.2562L85.4191 49.0869L86.2748 48.9037L86.8116 48.7888V49.5989L87.5772 49.6633L87.8169 49.6544L88.1556 49.8327L88.3457 49.7574L88.527 49.5821L88.7538 49.3048L89.0797 49.183L89.6432 48.872L89.7809 48.7967L90.6178 48.354L91.8677 47.8073L92.4283 47.5418L92.5956 47.4824L92.9126 47.3467L93.1265 47.2526L93.5049 47.1773L94.0179 47.1298L94.5785 47.0268L95.8462 46.8327L96.0057 46.8149L96.7178 46.7346L97.0209 46.6594L97.4734 46.699L98.0648 46.7267L98.457 46.7762L98.9769 46.7376L99.692 46.6851L100.27 46.6931L100.558 46.6277L100.982 46.4227L101.266 46.2602L101.712 46.0631L102.267 45.8581L102.653 45.6719L102.909 45.5481L103.219 45.4312L103.3 45.2807L103.389 45.1648L103.554 44.9717L103.85 44.6112L104.076 44.2952L104.187 44.1546L104.44 43.8386L104.645 43.6L104.907 43.2781L105.126 43.1741L105.406 43.0859L106.14 42.77L106.285 42.7017L106.407 42.6878L106.667 42.4323L106.886 42.2104L107.03 42.045L107.328 41.9846L107.481 41.8648L107.507 41.7082L107.477 41.4686L107.333 41.2229L107.212 41.008L106.786 40.598L106.561 40.3435L106.331 40.0156L106.237 39.7076L106.079 39.5115L106.004 39.3372L106.028 39.1361L106.247 38.7776L106.316 38.5508L106.407 38.1497L106.612 37.5485L106.779 37.2662L106.973 36.9909L107.382 36.6205L107.756 36.5521L107.979 36.6254H108.477L108.809 36.6452L109.053 36.8304L109.324 37.1959L109.63 37.3296L110.583 37.6158L110.99 37.6763L111.281 37.6891L111.712 37.7832L111.856 37.804L112.077 37.8684L112.259 37.7991L112.536 37.5544L112.883 37.2801L113.033 37.2167L113.309 37.0978L113.448 36.986L113.691 36.6769L114.006 36.4372L114.39 36.0767L114.579 35.8054L114.621 35.63L114.662 35.4399L114.781 35.3399L115.015 35.2478L115.278 35.223L115.779 35.3864L116.457 35.3399L116.608 35.3161L117.225 35.222L117.504 35.1447L117.896 35.0705L118.197 34.7674L118.6 34.4059L118.893 34.2048L119.088 34.1662L119.332 33.9572L119.452 33.7324L119.42 33.5343L119.375 33.3709L119.518 33.0669L119.778 32.534L120.019 32.2854L120.219 32.0844L120.347 31.7605L120.505 31.6674L120.698 31.6317L120.97 31.4118L121.17 31.3673L121.503 31.4723L121.995 31.499L122.309 31.5099L122.489 31.4703L122.554 31.3524L122.552 31.1702L122.652 30.7641L122.69 30.6304L122.78 30.568L123.083 30.5601L123.287 30.7057L123.427 30.8265L123.623 30.8424L123.824 30.7631L124.092 30.4343L124.54 30.2432L124.777 30.1946L125.199 30.0391L125.466 30.0956L125.955 30.1411L126.144 30.1015L126.35 30.1411L126.537 29.9183L126.686 29.8648L127.001 29.9678L127.199 30.1402L127.569 30.3561L128.042 30.4571L128.437 30.4056L128.843 30.4967L129.083 30.4888L129.197 30.4036L129.529 30.2224L129.609 29.9767L129.576 29.74L129.615 29.4716L129.517 29.2735L129.311 28.9804L129.23 28.7843L129.223 28.5278L129.095 28.2831L128.786 27.988L128.583 27.8513L128.165 27.3402L128.023 27.2204L127.974 27.1362L127.926 26.9649L127.771 26.8827L127.568 26.749L127.459 26.6123L127.388 26.3746L127.346 26.2191L127.166 26.0903L126.987 26.018L126.785 25.9269L126.45 25.7932L126.257 25.5268L125.916 25.0266L125.723 24.8582L125.004 24.7939L124.746 24.672L124.454 24.7136L124.279 24.7939L123.893 24.7929L123.693 24.8424L123.438 25.1722L123.101 25.6001L122.822 25.8606L122.624 26.1309L122.532 26.228L122.352 26.1696L122.104 25.8655L121.751 25.5931L121.423 25.4693L121.282 25.401L120.891 25.3317L120.589 25.3534L120.204 25.4564L119.827 25.4376L119.658 25.3723L119.418 25.3792L118.984 25.6625L118.76 25.9844L118.493 26.0854L118.253 25.8744L117.975 25.6248L117.71 25.3119L117.546 25.0217L117.455 24.2511L117.773 24.0214L118.179 23.7628L118.21 23.3538L118.195 22.8972L118.275 22.3881L118.646 21.9177L118.845 21.5275L118.87 21.2838L119.048 20.8787L119.218 20.4509L119.451 19.8883L119.892 18.886L120.413 17.6955L120.673 17.0993L121.245 17.4687L121.613 17.6609L122.236 17.952L122.879 18.0174L123.494 18.3324L123.811 18.4275H123.98L124.851 17.6609L125.587 17.0102L126.432 16.5011L127.054 16.4317L127.522 16.2832L127.833 16.0544L128.018 15.6721L128.074 15.1353L127.95 14.8094L127.645 14.6965L127.566 14.5826L127.713 14.4668L127.822 14.2419L127.89 13.9072L128.067 13.5882L128.349 13.2872L128.505 12.9524L128.534 12.584L128.704 12.2155L129.014 11.8481L129.185 11.5054L129.213 11.1885L129.371 10.8002L129.799 10.1119L130.076 9.31658L130.55 8.76986L131.31 8.20731L131.785 7.64772L131.974 7.09109L131.959 6.59788L131.739 6.17001L131.696 5.73422L131.833 5.28952L131.713 4.95674L131.338 4.73588L130.89 4.68142L130.37 4.79334L130.078 4.65367L130.014 4.26346L130.153 3.94752L130.497 3.70584L131.062 3.11654L131.848 2.17566L132.63 1.6537L133.797 1.50315L134.738 1.19316L135.697 0.87821L136.389 0.721703L136.507 0.826706L136.884 0.852458L137.521 0.798959L138.112 0.663278L138.659 0.444387L139.092 0.392883L139.41 0.508767L139.597 0.52264Z" fill="#374151" stroke="white" stroke-width="0.2" mask="url(#path-1-inside-1_1_54)"/>
</svg>
